<?xml version="1.0" encoding="utf-8"?>
<!-- Generator: Adobe Illustrator 24.3.0, SVG Export Plug-In . SVG Version: 6.00 Build 0)  -->
<svg version="1.1" id="Layer_1" xmlns="http://www.w3.org/2000/svg" xmlns:xlink="http://www.w3.org/1999/xlink" x="0px" y="0px"
	 viewBox="0 0 1366 768" style="enable-background:new 0 0 1366 768;" xml:space="preserve">
<style type="text/css">
	.st0{fill:#FFFFFF;}
	.st1{fill:url(#SVGID_1_);}
	.st2{fill:url(#SVGID_2_);}
</style>
<g>
	<path class="st0" d="M857.7,272L857.7,272z"/>
	<polygon points="857.2,276.5 858.2,276.5 858.2,271.5 857.2,271.5 	"/>
</g>
<g>
	
		<linearGradient id="SVGID_1_" gradientUnits="userSpaceOnUse" x1="-553.57" y1="264.9814" x2="810.9494" y2="264.9814" gradientTransform="matrix(-1 -2.857657e-03 2.857657e-03 -1 811.1542 491.1628)">
		<stop  offset="0" style="stop-color:#FFFFFF"/>
		<stop  offset="2.787696e-02" style="stop-color:#F4F8FD"/>
		<stop  offset="0.1575" style="stop-color:#C3D8F3"/>
		<stop  offset="0.2907" style="stop-color:#99BDEB"/>
		<stop  offset="0.4253" style="stop-color:#77A6E5"/>
		<stop  offset="0.5619" style="stop-color:#5D95E0"/>
		<stop  offset="0.7012" style="stop-color:#4A89DC"/>
		<stop  offset="0.845" style="stop-color:#3F81DA"/>
		<stop  offset="1" style="stop-color:#3B7FD9"/>
	</linearGradient>
	<path class="st1" d="M1366.1,11.3L6.3,451.4c-2.4,0.8-4.6-1.9-4.6-5.5l0,0L1.6,0.6l1364.3-0.5"/>
</g>
<linearGradient id="SVGID_2_" gradientUnits="userSpaceOnUse" x1="-137.1944" y1="562.1371" x2="-498.9496" y2="258.5885" gradientTransform="matrix(-0.9999 -1.395793e-02 -2.915085e-02 2.0881 822.4888 -683.0731)">
	<stop  offset="0" style="stop-color:#FFFFFF"/>
	<stop  offset="0.227" style="stop-color:#FFFDFC"/>
	<stop  offset="0.3696" style="stop-color:#FEF7F4"/>
	<stop  offset="0.489" style="stop-color:#FDECE5"/>
	<stop  offset="0.5956" style="stop-color:#FCDCD0"/>
	<stop  offset="0.6936" style="stop-color:#FAC8B6"/>
	<stop  offset="0.7854" style="stop-color:#F8AF95"/>
	<stop  offset="0.8724" style="stop-color:#F6916D"/>
	<stop  offset="0.9533" style="stop-color:#F37041"/>
	<stop  offset="1" style="stop-color:#F15A24"/>
</linearGradient>
<path class="st2" d="M1329,0.2c-0.6,5.6-0.9,13.6-1.7,24c0,0.2-0.1,0.2-0.2,0.4c-1.7,2.9-17.7,13.5-27.4,26.8
	c-9.8,13.4-20.2,25-24.4,28.9c-16.8,15-24.6,21.2-49.5,34.8c-11.1,6.1-322.6,226.7-337.3,235.5l7.1,10.1
	c91-55.7,450.7-257.5,470.3-357.5h0.2c0-0.2,0-0.6,0-1c0.1-0.7,0.2-1.4,0.3-2.1"/>
</svg>
