<?xml version="1.0" encoding="utf-8"?>
<!-- Generator: Adobe Illustrator 24.3.0, SVG Export Plug-In . SVG Version: 6.00 Build 0)  -->
<svg version="1.1" id="Layer_1" xmlns="http://www.w3.org/2000/svg" xmlns:xlink="http://www.w3.org/1999/xlink" x="0px" y="0px"
	 viewBox="0 0 1366 768" style="enable-background:new 0 0 1366 768;" xml:space="preserve">
<style type="text/css">
	.st0{fill:#FFFFFF;}
	.st1{fill:url(#SVGID_1_);}
	.st2{fill:url(#SVGID_2_);}
</style>
<g>
	<path class="st0" d="M514.5,485L514.5,485z"/>
	<polygon points="510,484.7 510,485.3 515,485.3 515,484.7 	"/>
</g>
<g>
	
		<linearGradient id="SVGID_1_" gradientUnits="userSpaceOnUse" x1="299.3732" y1="696.3" x2="1066.25" y2="696.3" gradientTransform="matrix(6.123234e-17 -1 1 6.123234e-17 -14.05 1068.55)">
		<stop  offset="0" style="stop-color:#FFFFFF"/>
		<stop  offset="2.787696e-02" style="stop-color:#F4F8FD"/>
		<stop  offset="0.1575" style="stop-color:#C3D8F3"/>
		<stop  offset="0.2907" style="stop-color:#99BDEB"/>
		<stop  offset="0.4253" style="stop-color:#77A6E5"/>
		<stop  offset="0.5619" style="stop-color:#5D95E0"/>
		<stop  offset="0.7012" style="stop-color:#4A89DC"/>
		<stop  offset="0.845" style="stop-color:#3F81DA"/>
		<stop  offset="1" style="stop-color:#3B7FD9"/>
	</linearGradient>
	<polyline class="st1" points="772.5,769.2 298,2.3 305.4,2.3 1066.6,2.6 773.2,769.2 	"/>
</g>
<linearGradient id="SVGID_2_" gradientUnits="userSpaceOnUse" x1="772.8614" y1="887.0216" x2="428.1586" y2="597.7817" gradientTransform="matrix(-7.607036e-02 -0.9971 1.068 -8.147615e-02 -32.2848 1118.5962)">
	<stop  offset="0" style="stop-color:#FFFFFF"/>
	<stop  offset="0.227" style="stop-color:#FFFDFC"/>
	<stop  offset="0.3696" style="stop-color:#FEF7F4"/>
	<stop  offset="0.489" style="stop-color:#FDECE5"/>
	<stop  offset="0.5956" style="stop-color:#FCDCD0"/>
	<stop  offset="0.6936" style="stop-color:#FAC8B6"/>
	<stop  offset="0.7854" style="stop-color:#F8AF95"/>
	<stop  offset="0.8724" style="stop-color:#F6916D"/>
	<stop  offset="0.9533" style="stop-color:#F37041"/>
	<stop  offset="1" style="stop-color:#F15A24"/>
</linearGradient>
<path class="st2" d="M827.5,692.8c-2.5,3.6-10.2,12.4-19.4,20.8c-9,8.3-15.5,21.7-17.5,23.3c-0.1,0.1-0.1,0.2-0.3,0.2
	c-7.8,0.9-13.8,1.3-18,1.9v-0.2c-4.4-0.5-11.2-0.3-20.4-0.6c-0.2,0-0.2-0.2-0.3-0.2c-2.4-1.3-12.4-14-23.6-21.5
	c-11.3-7.5-21.3-15.6-24.8-18.9c-13.4-13.3-19-19.4-32.4-39.4c-6-8.9-210.7-256.9-219.1-268.7l-6.8,6.3
	c53.3,72.9,249.9,361.8,327.7,373.5l0.1,1c1.6-0.1,3.3-0.3,4.8-0.6c0.3,0,0.6,0,0.8-0.1v-0.2c73.7-18.3,189.9-320.5,222.9-397
	l-8.4-5.6c-5.1,12.4-140.5,275-144,284.3C841.2,672,837.2,678.6,827.5,692.8z"/>
</svg>
