<?xml version="1.0" encoding="utf-8"?>
<!-- Generator: Adobe Illustrator 24.3.0, SVG Export Plug-In . SVG Version: 6.00 Build 0)  -->
<svg version="1.1" id="Layer_1" xmlns="http://www.w3.org/2000/svg" xmlns:xlink="http://www.w3.org/1999/xlink" x="0px" y="0px"
	 viewBox="0 0 750 750" style="enable-background:new 0 0 750 750;" xml:space="preserve">
<style type="text/css">
	.st0{fill:url(#SVGID_1_);stroke:#497CBF;stroke-width:7;stroke-miterlimit:10;}
	.st1{fill:#FAFAFD;}
	.st2{fill:none;}
	.st3{fill:#F3F3F3;stroke:#F3F3F3;stroke-miterlimit:10;}
	.st4{fill:#F6EB16;}
	.st5{fill:#FFFFFF;stroke:#F3F3F3;stroke-miterlimit:10;}
</style>
<linearGradient id="SVGID_1_" gradientUnits="userSpaceOnUse" x1="-0.3608" y1="374.7868" x2="749.4713" y2="374.7868">
	<stop  offset="3.520000e-02" style="stop-color:#497CBF"/>
	<stop  offset="0.2246" style="stop-color:#4D7DBE"/>
	<stop  offset="0.364" style="stop-color:#5880BC"/>
	<stop  offset="0.4875" style="stop-color:#6985BA"/>
	<stop  offset="0.6017" style="stop-color:#7E8CB8"/>
	<stop  offset="0.7096" style="stop-color:#9897B4"/>
	<stop  offset="0.8127" style="stop-color:#B8A5B0"/>
	<stop  offset="0.9101" style="stop-color:#DDB8A9"/>
	<stop  offset="0.9739" style="stop-color:#FCC8A3"/>
	<stop  offset="0.9924" style="stop-color:#9BBCE3"/>
	<stop  offset="1" style="stop-color:#FCC8A3"/>
</linearGradient>
<rect x="-0.4" y="0.6" class="st0" width="749.8" height="748.4"/>
<path class="st1" d="M249.8,300.5"/>
<path class="st1" d="M138.1,348.2c0.2-1.1,0.4-2.3,0.6-3.4C138.5,346,138.3,347.1,138.1,348.2z"/>
<path class="st1" d="M274.3,327.5c-0.1-0.2-0.2-0.4-0.3-0.6c-0.1-0.1-0.1-0.2-0.2-0.4"/>
<path class="st2" d="M138.1,348.2c0.2-1.1,0.4-2.3,0.6-3.4C138.5,346,138.3,347.1,138.1,348.2z"/>
<path class="st2" d="M274.3,327.5c-0.1-0.2-0.2-0.4-0.3-0.6"/>
<path class="st3" d="M150.4-3.4"/>
<path class="st3" d="M187.5,301"/>
<path class="st3" d="M209.1,306.2"/>
<path class="st4" d="M146.4,528.7L146.4,528.7z"/>
<path class="st5" d="M622,338.8h-74.2v59.5H622c3.8-0.4,10.2-1.6,16.4-6.1c1.1-0.8,2.6-1.9,4.3-3.6c7-7.6,6.7-17.7,6.7-20
	c0-2-0.4-10.8-6.7-18.8c-3.1-4-6.4-6.1-7.3-6.7C630,339.7,624.7,339,622,338.8z"/>
<path class="st5" d="M547.9,248.3h-85.1v324.4h0.3v90c46,0,83.3-40.2,83.6-90h1.2L547.9,248.3L547.9,248.3z"/>
<path class="st5" d="M547.9,248.8l-0.7-81.3c-47,0.4-84.7,36.9-84.4,81.6c0,0.1,0,0.3,0,0.4L547.9,248.8z"/>
<path class="st5" d="M687.7,168.1l-0.3-0.3H547.5v66.8c4.1,0,98.7,0,139.8,0c0,0.2,0.3,0.1,0.3,0.3c18.8,0,33.7-14.9,33.7-33.7
	C721.4,182.4,706.5,168.1,687.7,168.1z"/>
<polygon class="st3" points="547.9,330.7 549.1,332.8 550.3,334 552.1,335.2 554.5,336.4 557,337.6 560,338.8 547.9,338.8 "/>
<polygon class="st3" points="547.9,246.8 549.1,244.1 550.9,241 553.3,238 556.4,236.2 560,234.9 561.8,234.6 548.2,234.6 "/>
<path class="st4" d="M776,37.7L776,37.7z"/>
<path class="st3" d="M304.9,430.2"/>
<path class="st5" d="M365.2,411c-10.4-24.7-71.4-39.7-81.9-44.1l-37.2-5.7l-16.5-1.9c-4.2-0.1-10.9-0.7-18.4-3.8
	c-8.6-3.6-14.3-8.7-17.4-12l-3.8-11.8c0-0.5,0-0.9,0.1-1.2c0-0.2,0-0.3,0-0.5c0-0.4,0.1-0.8,0.1-1.2c0-0.4,0.1-0.7,0.1-1.1
	c0,0,0,0,0-0.1c0-0.2,0-0.4,0.1-0.6c0-0.2,0-0.4,0.1-0.6c0-0.4,0.1-0.8,0.1-1.2c0-0.2,0.1-0.4,0.1-0.6c0-0.1,0-0.1,0-0.1
	c0.1-0.4,0.1-0.7,0.2-1.1c0-0.2,0.1-0.3,0.1-0.5c0.2-1.1,0.4-2.3,0.6-3.4c0.1-0.4,0.2-0.8,0.3-1.3s0.2-0.8,0.3-1.3
	c0.1-0.4,0.2-0.8,0.3-1.2c0.1-0.4,0.2-0.9,0.4-1.3c0.1-0.4,0.3-0.9,0.4-1.3c0.1-0.2,0.1-0.4,0.2-0.6c0,0,0,0,0,0
	c0.1-0.4,0.3-0.8,0.4-1.3c0.1-0.2,0.2-0.4,0.2-0.6c0.1-0.4,0.3-0.8,0.4-1.1c0.2-0.4,0.3-0.8,0.5-1.2c0.4-1.1,0.9-2.1,1.4-3.2
	c0.1-0.3,0.2-0.5,0.4-0.8c0.3-0.7,0.7-1.4,1-2.1c0.3-0.5,0.5-1,0.8-1.5c0,0,0-0.1,0.1-0.1c0.2-0.3,0.3-0.6,0.5-0.8
	c0.2-0.4,0.4-0.7,0.6-1.1c0.2-0.4,0.5-0.8,0.8-1.3c0.1-0.2,0.3-0.5,0.5-0.7c0,0,0-0.1,0.1-0.1c0,0,0-0.1,0.1-0.1
	c0.2-0.3,0.4-0.6,0.6-0.9c0.2-0.3,0.4-0.6,0.6-1c0.3-0.4,0.6-0.9,0.9-1.3c0.3-0.4,0.6-0.8,0.9-1.2c0.1-0.1,0.1-0.2,0.2-0.3
	c0.2-0.2,0.3-0.4,0.5-0.6c0.2-0.2,0.3-0.4,0.5-0.6c0.1-0.2,0.3-0.3,0.4-0.5c0.1-0.2,0.3-0.3,0.4-0.5c0.1-0.2,0.3-0.3,0.4-0.5
	c0.2-0.3,0.4-0.5,0.6-0.8c0.1-0.2,0.3-0.3,0.4-0.5c0.2-0.3,0.5-0.5,0.7-0.8c0.2-0.2,0.3-0.3,0.5-0.5c0.3-0.3,0.6-0.6,0.9-0.9
	c0.1-0.1,0.2-0.2,0.2-0.2c0.2-0.2,0.3-0.3,0.5-0.5c0.2-0.2,0.3-0.3,0.5-0.5c0.1-0.1,0.2-0.2,0.3-0.3c0.3-0.3,0.5-0.5,0.8-0.8
	c0.2-0.1,0.3-0.3,0.5-0.4c0,0,0.1-0.1,0.1-0.1c0.2-0.2,0.4-0.4,0.6-0.6c0.2-0.2,0.5-0.4,0.7-0.6l0,0c0.1-0.1,0.2-0.2,0.4-0.3
	c0.1-0.1,0.1-0.1,0.2-0.1c0.3-0.2,0.5-0.5,0.8-0.7c0.1-0.1,0.3-0.2,0.4-0.4c0.2-0.2,0.5-0.4,0.8-0.6c0.2-0.2,0.4-0.3,0.6-0.5
	c0.3-0.2,0.5-0.4,0.8-0.6c0.2-0.2,0.4-0.3,0.6-0.5c0,0,0,0,0,0c0.2-0.2,0.4-0.3,0.6-0.4c0.3-0.2,0.6-0.4,0.9-0.7
	c0.1-0.1,0.3-0.2,0.4-0.3c0.3-0.2,0.6-0.4,0.9-0.6c0.2-0.2,0.5-0.3,0.7-0.5c0.2-0.1,0.4-0.3,0.6-0.4c0.2-0.1,0.4-0.3,0.7-0.4
	c0.4-0.2,0.7-0.5,1.1-0.7c0,0,0.1-0.1,0.1-0.1c0.1-0.1,0.2-0.1,0.3-0.2c0.3-0.2,0.5-0.3,0.8-0.5c0,0,0,0,0,0
	c0.2-0.1,0.3-0.2,0.5-0.3c0,0,0,0,0,0c0.4-0.2,0.8-0.5,1.2-0.7c0.4-0.2,0.9-0.5,1.3-0.7c0.2-0.1,0.3-0.2,0.5-0.3
	c0.4-0.2,0.8-0.4,1.2-0.6c0.5-0.3,1-0.5,1.6-0.7c0.4-0.2,0.9-0.4,1.3-0.6c0.2-0.1,0.4-0.2,0.6-0.3c0.4-0.2,0.8-0.3,1.2-0.5
	c0.3-0.1,0.5-0.2,0.8-0.3c0.3-0.1,0.5-0.2,0.8-0.3c0,0,0.1,0,0.1,0c0.3-0.1,0.6-0.2,1-0.4c0.1,0,0.2-0.1,0.3-0.1
	c0.3-0.1,0.6-0.2,0.8-0.3c0.1,0,0.1,0,0.2-0.1c0.2-0.1,0.5-0.2,0.7-0.2c0,0,0,0,0,0c0.2-0.1,0.3-0.1,0.5-0.2
	c0.4-0.1,0.8-0.2,1.1-0.4c0.5-0.1,1-0.3,1.5-0.4c0,0,0.1,0,0.1,0c0.4-0.1,0.8-0.2,1.2-0.3c0,0,0,0,0.1,0c0.4-0.1,0.8-0.2,1.2-0.3
	c0.2-0.1,0.4-0.1,0.6-0.1c0.2-0.1,0.4-0.1,0.6-0.1c0.1,0,0.1,0,0.2,0c0.4-0.1,0.8-0.2,1.1-0.2c0.1,0,0.3-0.1,0.4-0.1
	c0,0,0.1,0,0.1,0c0.4-0.1,0.8-0.1,1.1-0.2c0.2,0,0.3-0.1,0.5-0.1c0.4-0.1,0.8-0.1,1.3-0.2c0.3-0.1,0.6-0.1,0.9-0.1
	c0.1,0,0.2,0,0.2,0c0.4-0.1,0.7-0.1,1.1-0.1c1.2-0.1,2.4-0.3,3.6-0.3h0c0.5,0,1-0.1,1.5-0.1c0.1,0,0.2,0,0.3,0
	c1.2-0.1,2.4-0.1,3.6-0.1c0.6,0,1.1,0,1.7,0h0.1c0.5,0,1.1,0,1.6,0.1c0,0,0.1,0,0.1,0c0.2,0,0.3,0,0.5,0c0.2,0,0.4,0,0.6,0
	c0.2,0,0.3,0,0.5,0c0,0,0.1,0,0.1,0c0.3,0,0.6,0,0.9,0.1h0c0.3,0,0.6,0.1,1,0.1c0,0,0,0,0.1,0c0.2,0,0.4,0,0.6,0.1
	c0.3,0,0.6,0.1,0.9,0.1c0.2,0,0.3,0,0.5,0.1c0.2,0,0.3,0,0.5,0.1c0,0,0.1,0,0.1,0c0.4,0,0.8,0.1,1.1,0.2c0.1,0,0.1,0,0.2,0
	c0.4,0.1,0.8,0.1,1.1,0.2c0.3,0.1,0.7,0.1,1,0.2c0.3,0.1,0.7,0.1,1,0.2c0.2,0,0.4,0.1,0.7,0.1c0.4,0.1,0.8,0.2,1.2,0.3
	c0.2,0.1,0.5,0.1,0.7,0.2c0.4,0.1,0.8,0.2,1.2,0.3c0.1,0,0.1,0,0.1,0c0.1,0,0.1,0,0.2,0.1c0.4,0.1,0.8,0.2,1.2,0.3
	c0.1,0,0.1,0,0.2,0.1c0,0,0.1,0,0.1,0c0.4,0.1,0.8,0.2,1.2,0.3c0.3,0.1,0.5,0.1,0.8,0.2c0.1,0,0.1,0,0.2,0.1c0.1,0,0.2,0.1,0.3,0.1
	c0.3,0.1,0.7,0.2,1,0.3c0.4,0.1,0.8,0.3,1.2,0.4c0.3,0.1,0.6,0.2,0.8,0.3c0.1,0,0.1,0,0.1,0.1c0.8,0.3,1.7,0.6,2.5,1
	c0.2,0.1,0.4,0.1,0.5,0.2c0.3,0.1,0.6,0.3,0.9,0.4c0.2,0.1,0.4,0.2,0.6,0.3c0.3,0.1,0.5,0.2,0.8,0.4c0.4,0.2,0.7,0.3,1.1,0.5
	c0.2,0.1,0.4,0.2,0.6,0.3c0,0,0,0,0,0c0.3,0.2,0.7,0.4,1.1,0.5c0,0,0.1,0,0.1,0c0,0,0.1,0,0.1,0.1c0.4,0.2,0.8,0.4,1.2,0.6
	c0.5,0.2,0.9,0.5,1.3,0.7c0.4,0.3,0.9,0.5,1.3,0.8c0.9,0.5,1.7,1.1,2.6,1.6c0.2,0.1,0.4,0.3,0.6,0.4c0.2,0.2,0.5,0.3,0.7,0.5
	c0.4,0.3,0.8,0.6,1.3,0.9c0.4,0.3,0.8,0.6,1.2,0.9c0.4,0.3,0.8,0.6,1.2,0.9c0.4,0.3,0.8,0.6,1.2,1h0L362,207
	c-9.9-8.4-46-33.2-99.7-29.5c-38.3,2.7-65.2,21.9-77.1,30.3c-10.1,7.2-29.7,21.5-45.2,48.1c-2.9,5-16.2,28.4-19.5,61.6
	c-1.4,14-2.3,22.6,1,33.4c7.8,25.6,28,49.7,37.9,55.3l-1.8,0.6l45,4.6l37.6,2l16.6,0.2c4.2-0.3,10.9-0.4,18.7,2
	c8.9,2.7,15.1,7.2,18.6,10.2l5,11.4c0,0.5,0.1,0.9,0.1,1.2c0,0.2,0,0.3,0,0.5c0,0.4,0,0.8,0,1.2c0,0.4,0,0.7,0,1.1c0,0,0,0,0,0.1
	c0,0.2,0,0.4,0,0.6c0,0.2,0,0.4,0,0.6c0,0.4,0,0.8,0,1.2c0,0.2,0,0.4,0,0.6c0,0.1,0,0.1,0,0.1c0,0.4,0,0.7,0,1.1c0,0.2,0,0.3,0,0.5
	c-0.1,1.2-0.2,2.3-0.3,3.5c0,0.4-0.1,0.9-0.1,1.3c0,0.4-0.1,0.9-0.2,1.3c-0.1,0.4-0.1,0.8-0.2,1.2c-0.1,0.4-0.1,0.9-0.2,1.3
	c-0.1,0.4-0.2,0.9-0.3,1.3c0,0.2-0.1,0.4-0.1,0.6c0,0,0,0,0,0c-0.1,0.4-0.2,0.9-0.3,1.3c0,0.2-0.1,0.4-0.2,0.7
	c-0.1,0.4-0.2,0.8-0.3,1.2c-0.1,0.4-0.2,0.9-0.4,1.3c-0.3,1.1-0.7,2.2-1,3.3c-0.1,0.3-0.2,0.5-0.3,0.8c-0.3,0.7-0.5,1.5-0.8,2.2
	c-0.2,0.5-0.4,1-0.6,1.6c0,0,0,0.1,0,0.1c-0.1,0.3-0.3,0.6-0.4,0.9c-0.2,0.4-0.3,0.8-0.5,1.2c-0.2,0.5-0.4,0.9-0.6,1.3
	c-0.1,0.3-0.2,0.5-0.4,0.8c0,0,0,0.1,0,0.1c0,0,0,0.1-0.1,0.1c-0.2,0.3-0.3,0.6-0.5,0.9c-0.2,0.3-0.4,0.7-0.5,1
	c-0.3,0.5-0.5,1-0.8,1.4c-0.2,0.4-0.5,0.8-0.7,1.2c-0.1,0.1-0.1,0.2-0.2,0.3c-0.1,0.2-0.3,0.4-0.4,0.7c-0.1,0.2-0.3,0.4-0.4,0.7
	c-0.1,0.2-0.2,0.4-0.4,0.6c-0.1,0.2-0.2,0.4-0.4,0.6c-0.1,0.2-0.2,0.3-0.3,0.5c-0.2,0.3-0.4,0.5-0.6,0.8c-0.1,0.2-0.2,0.3-0.4,0.5
	c-0.2,0.3-0.4,0.6-0.6,0.8c-0.1,0.2-0.3,0.4-0.4,0.5c-0.3,0.3-0.5,0.7-0.8,1c-0.1,0.1-0.1,0.2-0.2,0.3c-0.1,0.2-0.3,0.3-0.4,0.5
	c-0.1,0.2-0.3,0.3-0.4,0.5c-0.1,0.1-0.2,0.2-0.3,0.4c-0.2,0.3-0.5,0.6-0.7,0.8c-0.1,0.2-0.3,0.3-0.4,0.5c0,0,0,0.1-0.1,0.1
	c-0.2,0.2-0.4,0.4-0.6,0.6c-0.2,0.2-0.4,0.5-0.6,0.7l0,0c-0.1,0.1-0.2,0.2-0.3,0.4c0,0.1-0.1,0.1-0.1,0.2c-0.2,0.3-0.5,0.5-0.7,0.8
	c-0.1,0.1-0.3,0.3-0.4,0.4c-0.2,0.2-0.4,0.5-0.7,0.7c-0.2,0.2-0.4,0.4-0.6,0.5c-0.2,0.2-0.5,0.5-0.7,0.7c-0.2,0.2-0.4,0.3-0.5,0.5
	c0,0,0,0,0,0c-0.2,0.2-0.4,0.3-0.6,0.5c-0.3,0.3-0.6,0.5-0.8,0.7c-0.1,0.1-0.3,0.2-0.4,0.4c-0.3,0.2-0.5,0.5-0.8,0.7
	c-0.2,0.2-0.4,0.4-0.6,0.5c-0.2,0.2-0.4,0.3-0.6,0.5c-0.2,0.2-0.4,0.3-0.6,0.5c-0.3,0.3-0.7,0.5-1,0.8c0,0-0.1,0.1-0.1,0.1
	c-0.1,0.1-0.2,0.2-0.3,0.2c-0.2,0.2-0.5,0.4-0.7,0.5c0,0,0,0,0,0c-0.1,0.1-0.3,0.2-0.4,0.3c0,0,0,0,0,0c-0.4,0.3-0.8,0.5-1.1,0.8
	c-0.4,0.3-0.8,0.6-1.2,0.8c-0.2,0.1-0.3,0.2-0.5,0.3c-0.4,0.2-0.8,0.5-1.1,0.7c-0.5,0.3-1,0.6-1.5,0.9c-0.4,0.3-0.8,0.5-1.3,0.7
	c-0.2,0.1-0.4,0.2-0.5,0.3c-0.4,0.2-0.8,0.4-1.2,0.6c-0.3,0.1-0.5,0.3-0.8,0.4c-0.3,0.1-0.5,0.3-0.8,0.4c0,0-0.1,0-0.1,0
	c-0.3,0.2-0.6,0.3-0.9,0.5c-0.1,0-0.2,0.1-0.3,0.1c-0.3,0.1-0.5,0.3-0.8,0.4c-0.1,0-0.1,0.1-0.2,0.1c-0.2,0.1-0.5,0.2-0.7,0.3
	c0,0,0,0,0,0c-0.2,0.1-0.3,0.1-0.5,0.2c-0.4,0.2-0.7,0.3-1.1,0.5c-0.5,0.2-0.9,0.4-1.4,0.6c0,0-0.1,0-0.1,0
	c-0.4,0.2-0.8,0.3-1.1,0.4c0,0,0,0-0.1,0c-0.4,0.1-0.7,0.3-1.1,0.4c-0.2,0.1-0.4,0.1-0.6,0.2c-0.2,0.1-0.4,0.1-0.6,0.2
	c-0.1,0-0.1,0-0.2,0c-0.4,0.1-0.7,0.2-1.1,0.4c-0.1,0-0.3,0.1-0.4,0.1c0,0-0.1,0-0.1,0c-0.4,0.1-0.7,0.2-1.1,0.3
	c-0.2,0-0.3,0.1-0.5,0.1c-0.4,0.1-0.8,0.2-1.2,0.3c-0.3,0.1-0.6,0.2-0.9,0.2c-0.1,0-0.2,0-0.2,0.1c-0.4,0.1-0.7,0.2-1.1,0.3
	c-1.2,0.3-2.3,0.5-3.5,0.7l0,0c-0.5,0.1-1,0.2-1.5,0.2c-0.1,0-0.2,0-0.3,0c-1.2,0.2-2.4,0.3-3.6,0.5c-0.6,0.1-1.1,0.1-1.7,0.2
	l-0.1,0c-0.5,0-1.1,0.1-1.6,0.1c0,0-0.1,0-0.1,0c-0.2,0-0.3,0-0.5,0c-0.2,0-0.4,0-0.6,0c-0.2,0-0.3,0-0.5,0c0,0-0.1,0-0.1,0
	c-0.3,0-0.6,0-0.9,0l0,0c-0.3,0-0.6,0-1,0c0,0,0,0-0.1,0c-0.2,0-0.4,0-0.6,0c-0.3,0-0.6,0-0.9,0c-0.2,0-0.3,0-0.5,0
	c-0.2,0-0.3,0-0.5,0c0,0-0.1,0-0.1,0c-0.4,0-0.8,0-1.2,0c-0.1,0-0.1,0-0.2,0c-0.4,0-0.8,0-1.2-0.1c-0.3,0-0.7,0-1-0.1
	c-0.3,0-0.7-0.1-1-0.1c-0.2,0-0.4,0-0.7-0.1c-0.4,0-0.8-0.1-1.3-0.1c-0.2,0-0.5-0.1-0.7-0.1c-0.4-0.1-0.8-0.1-1.2-0.2
	c-0.1,0-0.1,0-0.1,0c-0.1,0-0.1,0-0.2,0c-0.4-0.1-0.8-0.1-1.2-0.2c-0.1,0-0.1,0-0.2,0c0,0-0.1,0-0.1,0c-0.4-0.1-0.8-0.1-1.2-0.2
	c-0.3,0-0.5-0.1-0.8-0.2c-0.1,0-0.1,0-0.2,0c-0.1,0-0.2,0-0.4-0.1c-0.3-0.1-0.7-0.1-1-0.2c-0.4-0.1-0.8-0.2-1.2-0.3
	c-0.3-0.1-0.6-0.1-0.9-0.2c-0.1,0-0.1,0-0.1,0c-0.9-0.2-1.7-0.5-2.6-0.7c-0.2-0.1-0.4-0.1-0.6-0.2c-0.3-0.1-0.6-0.2-0.9-0.3
	c-0.2-0.1-0.4-0.1-0.7-0.2c-0.3-0.1-0.5-0.2-0.8-0.3c-0.4-0.1-0.8-0.3-1.1-0.4c-0.2-0.1-0.4-0.1-0.6-0.2c0,0,0,0,0,0
	c-0.4-0.1-0.7-0.3-1.1-0.4c0,0-0.1,0-0.1,0c0,0-0.1,0-0.1,0c-0.4-0.2-0.9-0.3-1.3-0.5c-0.5-0.2-0.9-0.4-1.4-0.6
	c-0.5-0.2-0.9-0.4-1.4-0.6c-0.9-0.4-1.8-0.9-2.7-1.3c-0.2-0.1-0.4-0.2-0.6-0.3c-0.3-0.1-0.5-0.3-0.7-0.4c-0.4-0.2-0.9-0.5-1.3-0.7
	c-0.4-0.2-0.9-0.5-1.3-0.8c-0.4-0.3-0.9-0.5-1.3-0.8c-0.4-0.3-0.9-0.5-1.3-0.8l0,0l-45.7,77.7c10.7,7.4,49.1,28.4,102.2,19.3
	c37.8-6.5,62.7-28.3,73.7-37.9c9.4-8.2,27.4-24.4,40.2-52.4c2.4-5.2,13.2-29.9,13.2-63.3C369.6,430.1,369.6,421.5,365.2,411z"/>
</svg>
