<?xml version="1.0" encoding="utf-8"?>
<!-- Generator: Adobe Illustrator 24.3.0, SVG Export Plug-In . SVG Version: 6.00 Build 0)  -->
<svg version="1.1" id="Layer_1" xmlns="http://www.w3.org/2000/svg" xmlns:xlink="http://www.w3.org/1999/xlink" x="0px" y="0px"
	 viewBox="0 0 1366 768" style="enable-background:new 0 0 1366 768;" xml:space="preserve">
<style type="text/css">
	.st0{fill:#FFFFFF;}
	.st1{fill:url(#SVGID_1_);}
	.st2{fill:url(#SVGID_2_);}
</style>
<g>
	<path class="st0" d="M506.5,218.5L506.5,218.5z"/>
	<polygon points="507,214 506,214 506,219 507,219 	"/>
</g>
<g>
	
		<linearGradient id="SVGID_1_" gradientUnits="userSpaceOnUse" x1="0.5" y1="383.6847" x2="1366" y2="383.6847" gradientTransform="matrix(1 0 0 -1 0 770)">
		<stop  offset="0" style="stop-color:#FFFFFF"/>
		<stop  offset="2.787696e-02" style="stop-color:#F4F8FD"/>
		<stop  offset="0.1575" style="stop-color:#C3D8F3"/>
		<stop  offset="0.2907" style="stop-color:#99BDEB"/>
		<stop  offset="0.4253" style="stop-color:#77A6E5"/>
		<stop  offset="0.5619" style="stop-color:#5D95E0"/>
		<stop  offset="0.7012" style="stop-color:#4A89DC"/>
		<stop  offset="0.845" style="stop-color:#3F81DA"/>
		<stop  offset="1" style="stop-color:#3B7FD9"/>
	</linearGradient>
	<polyline class="st1" points="0.5,476.5 1366,2 1366,9.4 1365.5,770.6 0.5,477.3 	"/>
</g>
<linearGradient id="SVGID_2_" gradientUnits="userSpaceOnUse" x1="740.4006" y1="128.9146" x2="203.7822" y2="579.191" gradientTransform="matrix(0.9971 -7.607036e-02 -8.147615e-02 -1.068 26.1196 835.6606)">
	<stop  offset="0" style="stop-color:#FFFFFF"/>
	<stop  offset="0.227" style="stop-color:#FFFDFC"/>
	<stop  offset="0.3696" style="stop-color:#FEF7F4"/>
	<stop  offset="0.489" style="stop-color:#FDECE5"/>
	<stop  offset="0.5956" style="stop-color:#FCDCD0"/>
	<stop  offset="0.6936" style="stop-color:#FAC8B6"/>
	<stop  offset="0.7854" style="stop-color:#F8AF95"/>
	<stop  offset="0.8724" style="stop-color:#F6916D"/>
	<stop  offset="0.9533" style="stop-color:#F37041"/>
	<stop  offset="1" style="stop-color:#F15A24"/>
</linearGradient>
<path class="st2" d="M136.5,531.6c-6.4-2.5-22.1-10.2-37.1-19.4c-14.8-9-38.7-15.5-41.4-17.5c-0.2-0.1-0.3-0.1-0.3-0.3
	c-1.6-7.8-2.4-13.8-3.4-18l0.3,0c0.9-4.4,0.6-11.2,1.1-20.4c0-0.2,0.3-0.2,0.3-0.3c2.3-2.4,25-12.4,38.2-23.6
	c13.4-11.3,27.7-21.3,33.7-24.8c23.6-13.4,34.6-19,70.2-32.4c15.9-6,457.5-210.7,478.5-219.1l-11.2-6.8
	C535.6,202.3,21.1,398.9,0.3,476.7l-1.8,0.1c0.1,1.6,0.5,3.3,1.1,4.8c0,0.3,0,0.6,0.1,0.8l0.3,0c32.6,73.7,570.7,189.9,706.9,222.9
	l10-8.4c-22-5.1-489.6-140.5-506.2-144C173.5,545.2,161.8,541.3,136.5,531.6z"/>
</svg>
