<?xml version="1.0" encoding="utf-8"?>
<!-- Generator: Adobe Illustrator 24.3.0, SVG Export Plug-In . SVG Version: 6.00 Build 0)  -->
<svg version="1.1" id="Layer_1" xmlns="http://www.w3.org/2000/svg" xmlns:xlink="http://www.w3.org/1999/xlink" x="0px" y="0px"
	 viewBox="0 0 750 750" style="enable-background:new 0 0 750 750;" xml:space="preserve">
<style type="text/css">
	.st0{fill:#F6EB16;}
	.st1{fill:url(#SVGID_1_);stroke:#260101;stroke-width:7;stroke-miterlimit:10;}
	.st2{fill:#1E5830;stroke:#497CBF;stroke-miterlimit:10;}
	.st3{fill:#F3F3F3;stroke:#F3F3F3;stroke-miterlimit:10;}
	.st4{fill:none;stroke:#497CBF;stroke-miterlimit:10;}
	.st5{fill:#FFAE81;stroke:#1E5830;stroke-width:4;stroke-miterlimit:10;}
	.st6{opacity:0.8;fill:#FFAE81;stroke:#1E5830;stroke-width:5;stroke-miterlimit:10;}
	.st7{opacity:0.8;fill:#FFAE81;stroke:#1E5830;stroke-width:3;stroke-miterlimit:10;}
	.st8{fill:none;stroke:#1E5830;stroke-width:3;stroke-miterlimit:10;}
	.st9{fill:none;stroke:#FFAE81;stroke-width:9;stroke-miterlimit:10;}
	.st10{fill:none;stroke:#1E5830;stroke-width:5;stroke-miterlimit:10;}
	.st11{fill:#FBFAFC;}
	.st12{fill:none;}
	.st13{fill:#F2F2F2;stroke:#F2F2F2;stroke-miterlimit:10;}
	.st14{fill:#FFFF00;}
</style>
<path class="st0" d="M767.9,256.1L767.9,256.1z"/>
<linearGradient id="SVGID_1_" gradientUnits="userSpaceOnUse" x1="-0.1019" y1="373.4424" x2="750.6696" y2="373.4424">
	<stop  offset="3.520000e-02" style="stop-color:#3B7FD9"/>
	<stop  offset="0.9924" style="stop-color:#99BDEB"/>
	<stop  offset="1" style="stop-color:#FFFFFF"/>
</linearGradient>
<rect x="-0.1" y="0.2" class="st1" width="750.8" height="746.6"/>
<path class="st2" d="M396,748.1"/>
<path class="st3" d="M41.2,5"/>
<polygon class="st4" points="207.1,232.8 132.7,350.1 390.5,350.9 449.3,230.8 "/>
<polygon class="st4" points="390.5,350.9 449.3,230.8 206.5,233.4 137.6,348.2 "/>
<path class="st5" d="M543.8,207.5l-77.2-18.6l8.7,26.8l132.2-17.5L596,169.3L543.8,207.5"/>
<path class="st5" d="M541.9,194.1l-33.8-14.4l15.4-22.7l32.8,10.3L541.9,194.1"/>
<path class="st4" d="M556.4,167.3"/>
<polyline class="st6" points="307.7,70.4 390.5,350 449.3,230.8 307.7,71.2 206.4,232.4 132.6,349.2 307.7,71.2 390.5,350 "/>
<polygon class="st7" points="132.7,350.1 390.5,350.9 307.7,72.1 "/>
<polyline class="st8" points="449.3,230.8 207.1,232.8 137.6,350.4 389,353.2 449.3,230.8 389,353.2 275,511.4 137.6,350.4 
	206.7,235.2 275,512.2 "/>
<polygon class="st7" points="137.6,350.3 390.5,353 275.8,511.3 "/>
<path class="st9" d="M543.8,207.5l13.5,32c2.9,13.9,9.9,38.8,8.7,64c-0.9,20.1,4.1,43.3-16.4,76.4c-20,32.2-48.1,45.5-77.2,58.8
	c-38,17.4-68,20.7-118.7,25.8c-42.4,4.3-89.8,8.7-150.6-2.1c-35.8-6.4-61.3-10.8-91.7-28.9c-19.9-11.8-57.9-35.3-81.1-85.6
	c-4.3-9.4-28.3-63.7-11.6-129c10.3-40.4,31.4-65.7,45.4-82.5c31.6-38.1,65.8-55.8,84-65c44.9-22.7,82.5-26.8,121.6-31
	c42.8-4.6,100.4-8.1,156.4,10.3c47.3,15.6,52.1,26.5,57.9,32c19.6,18.7,32.5,60.2,39.6,74.3l0,0l0,0"/>
<polygon class="st10" points="390.5,350.9 449.3,230.8 307.7,72.1 "/>
<polygon class="st8" points="307.7,72.1 132.7,350.1 390.5,350.9 "/>
<path class="st8" d="M541.2,208.3l5.3-2.1l9.3,14.9l7.3,19.9l5.3,30.5l2,46.1l-2,27l-8.6,29.1l-20.6,29.1l-24.6,19.9l-40.5,20.6
	l-59.8,19.2l-71.7,7.1l-56.4,4.3l-69.7-3.5l-61.7-13.5l-31.2-11.4l-64.4-44l-35.9-53.2L6.8,278.6l3.3-43.3L21.4,197l26.6-48.3
	l39.2-42.6l57.1-37.6L188,50l70.4-14.2l67.1-4.3l67.7,6.4l57.1,15.6l27.2,14.2l26.6,34.1l15.3,36.2l8,16.3l-8.6,3.5l-18.6-42.6
	l-13.9-22L464.9,72L427,55l-31.9-8.5l-51.8-6.4L285,42.9L225.2,50l-47.1,13.5l-43.8,19.9c-15.9,8.7-28.2,18-37.2,25.6
	c-2.7,2.3-12.8,10.9-24.6,24.1c-4.5,5-13.4,15-22.6,29.1c-8,12.2-18.5,28.2-25.2,51.8c-7.1,24.8-6.5,45.3-6,58.2
	c0.8,21.4,4.7,37.6,6.6,44.7c2,7.4,5.6,19.2,12,32.6c4.7,10,14.3,30,33.2,49c15.2,15.3,29.4,22.7,45.8,31.2
	c8.3,4.3,29.2,14.5,61.7,22.7c43.3,10.9,77.7,10.8,110.9,10.6c31.7-0.1,55.6-2.7,70.4-4.3c25.9-2.8,46.1-5,72.4-12.1
	c24.9-6.7,46.2-12.4,70.4-28.4c17.8-11.7,37.8-24.9,49.8-51.1c9.6-20.8,9.4-39.6,9.3-66c-0.2-32.7-7.2-55.8-9.3-62.5
	c-3.7-11.6-7.9-20.9-11.3-27.7"/>
<path class="st11" d="M386.7,420.2c1.4,0.7,2.7,1.5,4,2.2C389.4,421.6,388,420.9,386.7,420.2z"/>
<path class="st11" d="M367.8,412.2c1.3,0.4,2.6,0.9,3.9,1.3C370.4,413.1,369.1,412.6,367.8,412.2z"/>
<path class="st11" d="M216.8,488.2c0.3-1.6,0.6-3.1,1-4.7C217.4,485.1,217.1,486.7,216.8,488.2z"/>
<path class="st11" d="M427.9,458.3c0.5,0.8,1.7,3,3.5,6.3c-0.2-0.3-0.3-0.7-0.5-1c-0.1-0.2-0.2-0.5-0.4-0.7
	c-0.6-1.1-1.2-2.2-1.9-3.4c-0.1-0.3-0.3-0.5-0.4-0.8C428.2,458.6,428.1,458.5,427.9,458.3z"/>
<path class="st12" d="M386.7,420.2c1.4,0.7,2.7,1.5,4,2.2C389.4,421.6,388,420.9,386.7,420.2z"/>
<path class="st12" d="M367.8,412.2c1.3,0.4,2.6,0.9,3.9,1.3C370.4,413.1,369.1,412.6,367.8,412.2z"/>
<path class="st12" d="M216.8,488.2c0.3-1.6,0.6-3.1,1-4.7C217.4,485.1,217.1,486.7,216.8,488.2z"/>
<path class="st12" d="M427.9,458.3c0.5,0.8,1.7,3,3.5,6.3c-0.2-0.3-0.3-0.7-0.5-1c-0.1-0.2-0.2-0.5-0.4-0.7
	c-0.6-1.1-1.2-2.2-1.9-3.4c-0.1-0.3-0.3-0.5-0.4-0.8C428.2,458.6,428.1,458.5,427.9,458.3z"/>
<path class="st13" d="M236,3.1"/>
<path class="st13" d="M293.7,423"/>
<path class="st13" d="M327.3,430.2"/>
<path class="st5" d="M410.1,604.3c0-0.2,0-0.4,0-0.6c0-0.1,0-0.1,0-0.2c0-0.2,0-0.4,0.1-0.6c0-0.2,0-0.3,0.1-0.5c0,0,0,0,0,0
	c0-0.1,0-0.2,0-0.3c0-0.1,0-0.2,0-0.3c0-0.2,0.1-0.4,0.1-0.5c0-0.1,0-0.2,0-0.3c0,0,0,0,0-0.1c0-0.2,0.1-0.3,0.1-0.5
	c0-0.1,0-0.1,0-0.2c0.1-0.5,0.2-1,0.4-1.6c0.1-0.2,0.1-0.4,0.2-0.6c0.1-0.2,0.1-0.4,0.2-0.6c0.1-0.2,0.1-0.4,0.2-0.5
	c0.1-0.2,0.2-0.4,0.2-0.6s0.2-0.4,0.2-0.6c0-0.1,0.1-0.2,0.1-0.3c0,0,0,0,0,0c0.1-0.2,0.2-0.4,0.3-0.6c0-0.1,0.1-0.2,0.1-0.3
	c0.1-0.2,0.2-0.3,0.3-0.5c0.1-0.2,0.2-0.4,0.3-0.6c0.3-0.5,0.6-1,0.9-1.5c0.1-0.1,0.2-0.2,0.2-0.4c0.2-0.3,0.4-0.6,0.7-1
	c0.2-0.2,0.3-0.5,0.5-0.7c0,0,0,0,0,0c0.1-0.1,0.2-0.3,0.3-0.4c0.1-0.2,0.3-0.3,0.4-0.5c0.2-0.2,0.3-0.4,0.5-0.6
	c0.1-0.1,0.2-0.2,0.3-0.3c0,0,0,0,0,0c0,0,0,0,0,0c0.1-0.1,0.2-0.3,0.4-0.4c0.1-0.1,0.3-0.3,0.4-0.4c0.2-0.2,0.4-0.4,0.6-0.6
	c0.2-0.2,0.4-0.4,0.5-0.5c0,0,0.1-0.1,0.1-0.1c0.1-0.1,0.2-0.2,0.3-0.3c0.1-0.1,0.2-0.2,0.3-0.3c0.1-0.1,0.2-0.2,0.3-0.2
	c0.1-0.1,0.2-0.2,0.3-0.2c0.1-0.1,0.2-0.1,0.3-0.2c0.1-0.1,0.3-0.2,0.4-0.3c0.1-0.1,0.2-0.1,0.3-0.2c0.1-0.1,0.3-0.2,0.4-0.4
	c0.1-0.1,0.2-0.2,0.3-0.2c0.2-0.1,0.4-0.3,0.5-0.4c0,0,0.1-0.1,0.1-0.1c0.1-0.1,0.2-0.1,0.3-0.2c0.1-0.1,0.2-0.1,0.3-0.2
	c0.1,0,0.1-0.1,0.2-0.1c0.2-0.1,0.3-0.2,0.5-0.4c0.1-0.1,0.2-0.1,0.3-0.2c0,0,0,0,0.1,0c0.1-0.1,0.3-0.2,0.4-0.3
	c0.1-0.1,0.3-0.2,0.5-0.3l0,0c0.1-0.1,0.2-0.1,0.2-0.1c0,0,0.1,0,0.1-0.1c0.2-0.1,0.3-0.2,0.5-0.3c0.1-0.1,0.2-0.1,0.3-0.2
	c0.2-0.1,0.3-0.2,0.5-0.3c0.1-0.1,0.3-0.1,0.4-0.2c0.2-0.1,0.3-0.2,0.5-0.3c0.1-0.1,0.2-0.1,0.4-0.2c0,0,0,0,0,0
	c0.1-0.1,0.3-0.1,0.4-0.2c0.2-0.1,0.4-0.2,0.6-0.3c0.1,0,0.2-0.1,0.3-0.1c0.2-0.1,0.4-0.2,0.6-0.3c0.1-0.1,0.3-0.1,0.4-0.2
	c0.1-0.1,0.3-0.1,0.4-0.2c0.1-0.1,0.3-0.1,0.4-0.2c0.2-0.1,0.5-0.2,0.7-0.3c0,0,0.1,0,0.1,0c0.1,0,0.1-0.1,0.2-0.1
	c0.2-0.1,0.3-0.1,0.5-0.2c0,0,0,0,0,0c0.1,0,0.2-0.1,0.3-0.1c0,0,0,0,0,0c0.3-0.1,0.5-0.2,0.8-0.3c0.3-0.1,0.6-0.2,0.8-0.3
	c0.1,0,0.2-0.1,0.3-0.1c0.3-0.1,0.5-0.2,0.8-0.3c0.3-0.1,0.7-0.2,1-0.3c0.3-0.1,0.6-0.2,0.9-0.3c0.1,0,0.2-0.1,0.4-0.1
	c0.3-0.1,0.5-0.2,0.8-0.2c0.2,0,0.3-0.1,0.5-0.1c0.2,0,0.3-0.1,0.5-0.1c0,0,0,0,0.1,0c0.2-0.1,0.4-0.1,0.6-0.2c0.1,0,0.1,0,0.2,0
	c0.2,0,0.4-0.1,0.5-0.1c0,0,0.1,0,0.1,0c0.1,0,0.3-0.1,0.5-0.1c0,0,0,0,0,0c0.1,0,0.2-0.1,0.3-0.1c0.2-0.1,0.5-0.1,0.7-0.2
	c0.3-0.1,0.6-0.1,0.9-0.2c0,0,0.1,0,0.1,0c0.2-0.1,0.5-0.1,0.8-0.1c0,0,0,0,0,0c0.2,0,0.5-0.1,0.7-0.1c0.1,0,0.3,0,0.4-0.1
	c0.1,0,0.3,0,0.4-0.1c0,0,0.1,0,0.1,0c0.2,0,0.5-0.1,0.7-0.1c0.1,0,0.2,0,0.3,0c0,0,0,0,0.1,0c0.2,0,0.5-0.1,0.7-0.1
	c0.1,0,0.2,0,0.3,0c0.3,0,0.5-0.1,0.8-0.1c0.2,0,0.4,0,0.6-0.1c0,0,0.1,0,0.1,0c0.2,0,0.5,0,0.7-0.1c0.8-0.1,1.5-0.1,2.3-0.2h0
	c0.3,0,0.6,0,1,0c0.1,0,0.1,0,0.2,0c0.8,0,1.6,0,2.3,0c0.4,0,0.7,0,1.1,0h0.1c0.3,0,0.7,0,1,0c0,0,0,0,0.1,0c0.1,0,0.2,0,0.3,0
	c0.1,0,0.3,0,0.4,0c0.1,0,0.2,0,0.3,0c0,0,0,0,0.1,0c0.2,0,0.4,0,0.6,0h0c0.2,0,0.4,0,0.6,0c0,0,0,0,0,0c0.1,0,0.2,0,0.4,0
	c0.2,0,0.4,0,0.6,0c0.1,0,0.2,0,0.3,0c0.1,0,0.2,0,0.3,0c0,0,0.1,0,0.1,0c0.2,0,0.5,0,0.7,0.1c0,0,0.1,0,0.1,0
	c0.2,0,0.5,0.1,0.7,0.1c0.2,0,0.4,0,0.6,0.1c0.2,0,0.4,0.1,0.7,0.1c0.1,0,0.3,0,0.4,0.1c0.3,0,0.5,0.1,0.8,0.1c0.2,0,0.3,0,0.5,0.1
	c0.2,0,0.5,0.1,0.7,0.1c0,0,0.1,0,0.1,0c0,0,0.1,0,0.1,0c0.3,0,0.5,0.1,0.8,0.1c0,0,0.1,0,0.1,0c0,0,0,0,0.1,0
	c0.3,0,0.5,0.1,0.8,0.2c0.2,0,0.3,0.1,0.5,0.1c0,0,0.1,0,0.1,0c0.1,0,0.2,0,0.2,0.1c0.2,0,0.4,0.1,0.7,0.1c0.2,0.1,0.5,0.1,0.7,0.2
	c0.2,0,0.4,0.1,0.5,0.1c0,0,0.1,0,0.1,0c0.5,0.1,1.1,0.3,1.6,0.4c0.1,0,0.2,0.1,0.3,0.1c0.2,0.1,0.4,0.1,0.6,0.2
	c0.1,0,0.3,0.1,0.4,0.1c0.2,0.1,0.3,0.1,0.5,0.2c0.2,0.1,0.5,0.2,0.7,0.2c0.1,0,0.2,0.1,0.4,0.1c0,0,0,0,0,0
	c0.2,0.1,0.5,0.2,0.7,0.2c0,0,0,0,0.1,0c0,0,0,0,0.1,0c0.3,0.1,0.5,0.2,0.8,0.3c0.3,0.1,0.6,0.2,0.9,0.3c0.3,0.1,0.6,0.2,0.8,0.4
	c0.6,0.2,1.1,0.5,1.7,0.7c0.1,0.1,0.2,0.1,0.4,0.2c0.2,0.1,0.3,0.1,0.4,0.2c0.3,0.1,0.5,0.3,0.8,0.4c0.3,0.1,0.5,0.3,0.8,0.4
	c0.3,0.1,0.5,0.3,0.8,0.4c0.3,0.1,0.5,0.3,0.8,0.4h0l39.9-39.1c-6.3-3.8-35.2-9.2-69.6-7.5c-24.5,1.2-41.7,10-49.3,13.8
	c-6.5,3.3-19,9.8-28.9,21.9c-1.9,2.3-10.3,13-12.5,28.1c-0.9,6.4-1.5,10.3,0.7,15.2c5,11.7,18,22.8,24.3,25.2
	c14.3,5.6,31.5,5.2,42.1,5.7c19.3,0.8,23-0.2,32.2,2.9c10.1,3.3,13.8,7.9,13.2,16.7c-0.7,9.5-7.2,12.5-15.8,16.2
	c-3.1,1.3-7.9,3-13.9,4.4c-3.7,0.9-13.6,3-29.9,2.6c-17.2-0.4-58.6,38.1-53.6,39.2c15.6,3.5,30.7,3.9,67.1,1
	c17.7-1.4,29.5-2.7,43.4-6.7c2.8-0.8,6.2-1.8,10.4-3.3c4.9-1.8,22.3-8.5,34.3-21.9c1.1-0.9,2.6-2.2,4.3-3.9c3-3,8.9-8.7,12.1-16.6
	c3.9-9.7,1.8-18,0.9-21.4c-1.6-6-3.5-13.2-11.8-19.4c-10-7.5-22.8-8.8-27.5-9.2l-28.4-4.1l-23.8-2.6l-10.6-0.9
	c-2.7,0-7-0.3-11.8-1.7c-5.5-1.6-9.2-4-11.2-5.5L410.1,604.3z"/>
<path class="st14" d="M146.1,531.3L146.1,531.3z"/>
<g>
	<path class="st5" d="M613.5,588.5H666c1.9,0.1,5.7,0.5,9.5,2.7c0.6,0.4,3,1.7,5.2,4.2c4.4,5,4.7,10.6,4.7,11.8
		c0,1.4,0.2,7.8-4.7,12.6c-1.2,1.1-2.2,1.8-3,2.3c-4.4,2.8-8.9,3.6-11.6,3.8l-55.3-0.5"/>
	<g>
		<path class="st5" d="M565.7,566"/>
		<path class="st5" d="M567.8,555.4c-0.2-17.6,20.2-32.1,45.7-32.3v-0.4h71.9l0.2,0.1c9.7,0,17.4,6.9,17.4,15.9
			c0,9-7.7,16.2-17.4,16.2c0-0.1-0.2-0.1-0.2-0.1c-20.1,0-65.2,0-71.3,0l0,0.5l-4.3,139.5c0,0-21.1,34.7-46.1,34.7v-34.7h-0.2
			l2.2-128.8L567.8,555.4z"/>
	</g>
</g>
<path class="st14" d="M776.5,41.5L776.5,41.5z"/>
<path class="st13" d="M304.9,433.1"/>
</svg>
