<?xml version="1.0" encoding="utf-8"?>
<!-- Generator: Adobe Illustrator 24.3.0, SVG Export Plug-In . SVG Version: 6.00 Build 0)  -->
<svg version="1.1" id="Layer_1" xmlns="http://www.w3.org/2000/svg" xmlns:xlink="http://www.w3.org/1999/xlink" x="0px" y="0px"
	 viewBox="0 0 150 150" style="enable-background:new 0 0 150 150;" xml:space="preserve">
<style type="text/css">
	.st0{fill:#CB333B;stroke:#CB333B;stroke-miterlimit:10;}
	.st1{enable-background:new    ;}
	.st2{clip-path:url(#SVGID_2_);enable-background:new    ;}
	.st3{fill:#99850A;}
	.st4{clip-path:url(#SVGID_4_);enable-background:new    ;}
	.st5{fill:#9D880C;}
	.st6{fill:#A18C0D;}
	.st7{fill:#A58F0F;}
	.st8{fill:#A99310;}
	.st9{fill:#AD9611;}
	.st10{fill:#B29A12;}
	.st11{fill:#B69E13;}
	.st12{fill:#BAA114;}
	.st13{fill:#BFA515;}
	.st14{fill:#C3A916;}
	.st15{fill:#C8AC17;}
	.st16{fill:#CCB018;}
	.st17{fill:#D0B418;}
	.st18{fill:#D5B718;}
	.st19{fill:#D9BB19;}
	.st20{clip-path:url(#SVGID_6_);enable-background:new    ;}
	.st21{fill:#DDBE19;}
	.st22{fill:#E2C21A;}
	.st23{fill:#E6C51A;}
	.st24{fill:#EAC91A;}
	.st25{fill:#EFCD19;}
	.st26{fill:#F3D019;}
	.st27{fill:#F8D419;}
	.st28{fill:#FCD718;}
	.st29{fill:#FFDD18;}
	.st30{fill:#FFE045;}
	.st31{fill:#FFE253;}
	.st32{fill:#FFE35D;}
	.st33{fill:#FFE465;}
	.st34{clip-path:url(#SVGID_8_);enable-background:new    ;}
	.st35{clip-path:url(#SVGID_10_);enable-background:new    ;}
	.st36{clip-path:url(#SVGID_12_);enable-background:new    ;}
	.st37{clip-path:url(#SVGID_14_);enable-background:new    ;}
	.st38{clip-path:url(#SVGID_16_);enable-background:new    ;}
	.st39{clip-path:url(#SVGID_18_);enable-background:new    ;}
	.st40{fill:#00672C;}
	.st41{fill:#00813B;}
	.st42{fill:#009243;}
	.st43{fill:#006D30;}
	.st44{fill:#00803B;}
	.st45{fill:#00632A;}
	.st46{fill:#00682D;}
	.st47{fill:#00803A;}
	.st48{fill:#00622A;}
	.st49{fill:#006E30;}
	.st50{clip-path:url(#SVGID_20_);enable-background:new    ;}
	.st51{clip-path:url(#SVGID_22_);enable-background:new    ;}
	.st52{clip-path:url(#SVGID_24_);enable-background:new    ;}
	.st53{clip-path:url(#SVGID_26_);enable-background:new    ;}
	.st54{clip-path:url(#SVGID_28_);enable-background:new    ;}
	.st55{clip-path:url(#SVGID_30_);enable-background:new    ;}
	.st56{clip-path:url(#SVGID_32_);enable-background:new    ;}
	.st57{clip-path:url(#SVGID_34_);enable-background:new    ;}
	.st58{clip-path:url(#SVGID_36_);enable-background:new    ;}
	.st59{fill:#00823B;}
	.st60{fill:#00662C;}
	.st61{fill:#009143;}
	.st62{fill:#00652B;}
	.st63{fill:#00642A;}
	.st64{fill:#00823C;}
	.st65{clip-path:url(#SVGID_38_);enable-background:new    ;}
	.st66{clip-path:url(#SVGID_40_);enable-background:new    ;}
	.st67{clip-path:url(#SVGID_42_);enable-background:new    ;}
	.st68{fill:#FFE56C;}
	.st69{fill:#FFE572;}
	.st70{clip-path:url(#SVGID_44_);enable-background:new    ;}
	.st71{clip-path:url(#SVGID_46_);enable-background:new    ;}
	.st72{clip-path:url(#SVGID_48_);enable-background:new    ;}
	.st73{clip-path:url(#SVGID_50_);enable-background:new    ;}
	.st74{clip-path:url(#SVGID_52_);enable-background:new    ;}
	.st75{clip-path:url(#SVGID_54_);enable-background:new    ;}
</style>
<symbol  id="New_Symbol" viewBox="-134.4 -87.1 268.7 174.2">
	<rect x="-133.9" y="-85.3" class="st0" width="21.9" height="171.9"/>
	<rect x="-87" y="-85.3" class="st0" width="21.9" height="171.9"/>
	<rect x="-39.1" y="-85.3" class="st0" width="21.9" height="171.9"/>
	<rect x="12" y="-85.3" class="st0" width="21.9" height="171.9"/>
	<rect x="58.9" y="-85.4" class="st0" width="21.9" height="171.9"/>
	<rect x="112" y="-86.6" class="st0" width="21.9" height="171.9"/>
</symbol>
<g>
	<g>
		<g class="st1">
			<g class="st1">
				<defs>
					<path id="SVGID_1_" class="st1" d="M106.8,135.9c-0.5-0.4-1-0.7-1.7-1.1c-8.8-5-30.5-7.1-48.5-4.7c-8.9,1.2-15.2,3.3-18.2,5.7
						l11.5-9c2-1.6,6.2-3,12.1-3.8c11.9-1.6,26.4-0.2,32.2,3.1c0.4,0.2,0.8,0.5,1.1,0.7C99.2,129.8,103,132.9,106.8,135.9z"/>
				</defs>
				<clipPath id="SVGID_2_">
					<use xlink:href="#SVGID_1_"  style="overflow:visible;"/>
				</clipPath>
				<g class="st2">
					<path class="st3" d="M106.8,135.9l-11.5-9.1c-0.3-0.2-0.7-0.5-1.1-0.7c-5.9-3.3-20.3-4.7-32.2-3.1c-5.9,0.8-10.1,2.2-12.1,3.8
						l-11.5,9c3-2.4,9.4-4.5,18.2-5.7c18-2.4,39.7-0.3,48.5,4.7C105.8,135.2,106.3,135.5,106.8,135.9"/>
				</g>
			</g>
			<g class="st1">
				<defs>
					<path id="SVGID_3_" class="st1" d="M84,149.1c8.8-1.6,12.2-4.8,7.4-7.5c-5.1-2.9-17.7-4.1-28.1-2.7c-10.4,1.4-14.7,4.9-9.6,7.8
						L40,143.5c-8.8-5-1.4-11,16.6-13.4c18-2.4,39.7-0.3,48.5,4.7c8.2,4.6,2.4,10.2-12.8,12.9C89.5,148.2,86.8,148.6,84,149.1z"/>
				</defs>
				<clipPath id="SVGID_4_">
					<use xlink:href="#SVGID_3_"  style="overflow:visible;"/>
				</clipPath>
				<g class="st4">
					<path class="st5" d="M84,149.1l8.3-1.5c3.6-0.6,6.7-1.4,9.2-2.4l-12.2,2.5C87.9,148.3,86.1,148.8,84,149.1"/>
					<path class="st6" d="M89.3,147.8l12.2-2.5c3-1.1,5.1-2.3,6.2-3.6l-14.8,4C92.3,146.4,91,147.1,89.3,147.8"/>
					<path class="st7" d="M93,145.7l14.8-4c0.7-0.8,1.1-1.6,1.1-2.4l-15.3,5C93.6,144.7,93.4,145.2,93,145.7"/>
					<path class="st8" d="M93.6,144.3l15.3-5c0-0.6-0.2-1.3-0.6-1.9l-15,5.8C93.5,143.5,93.6,143.9,93.6,144.3"/>
					<path class="st9" d="M93.2,143.2l15-5.8c-0.4-0.5-0.9-1.1-1.6-1.6l-14.4,6.5C92.7,142.6,93,142.9,93.2,143.2"/>
					<path class="st10" d="M92.3,142.3l14.4-6.5c-0.4-0.3-0.9-0.7-1.5-1c-0.2-0.1-0.4-0.2-0.7-0.4l-13.4,7c0.1,0.1,0.3,0.1,0.4,0.2
						C91.8,141.9,92.1,142.1,92.3,142.3"/>
					<path class="st11" d="M91,141.5l13.4-7c-0.8-0.4-1.7-0.8-2.6-1.2l-12.3,7.5C90.1,141,90.6,141.2,91,141.5"/>
					<path class="st12" d="M89.5,140.8l12.3-7.5c-0.9-0.4-1.9-0.7-3-1l-11,8C88.4,140.4,89,140.6,89.5,140.8"/>
					<path class="st13" d="M87.8,140.2l11-8c-1.1-0.3-2.2-0.6-3.4-0.9l-9.6,8.3C86.5,139.9,87.1,140,87.8,140.2"/>
					<path class="st14" d="M85.8,139.7l9.6-8.3c-1.2-0.3-2.5-0.5-3.8-0.7l-8,8.6C84.4,139.4,85.1,139.6,85.8,139.7"/>
					<path class="st15" d="M83.6,139.3l8-8.6c-1.4-0.2-2.8-0.4-4.2-0.6l-6.3,8.9C82,139,82.8,139.1,83.6,139.3"/>
					<path class="st16" d="M81.2,138.9l6.3-8.9c-1.6-0.2-3.2-0.4-4.8-0.5l-4.2,9.1C79.3,138.7,80.3,138.8,81.2,138.9"/>
					<path class="st17" d="M78.4,138.6l4.2-9.1c-1.8-0.2-3.7-0.3-5.6-0.3l-1.9,9.3C76.2,138.5,77.3,138.5,78.4,138.6"/>
					<path class="st18" d="M75.1,138.4l1.9-9.3c-2.3-0.1-4.7-0.1-7.1-0.1l1.1,9.3C72.4,138.4,73.8,138.4,75.1,138.4"/>
					<path class="st19" d="M71,138.4l-1.1-9.3c-4.5,0.1-9,0.4-13.3,1c-5.1,0.7-9.4,1.7-12.7,2.8l12,7.7c1.9-0.7,4.4-1.2,7.3-1.6
						C65.8,138.6,68.4,138.4,71,138.4"/>
					<path class="st18" d="M56,140.6l-12-7.7c-1.5,0.5-2.7,1.1-3.8,1.7l13.6,7C54.4,141.2,55.1,140.9,56,140.6"/>
					<path class="st17" d="M53.8,141.6l-13.6-7c-0.9,0.5-1.6,1-2.1,1.5l14.6,6.3C52.9,142.1,53.3,141.9,53.8,141.6"/>
					<path class="st16" d="M52.5,142.4L38,136.1c-0.5,0.5-0.9,0.9-1.2,1.4l15.1,5.8C52,143,52.2,142.7,52.5,142.4"/>
					<path class="st15" d="M51.9,143.2l-15.1-5.8c-0.3,0.4-0.4,0.9-0.5,1.3l15.3,5.2C51.6,143.7,51.7,143.5,51.9,143.2"/>
					<path class="st14" d="M51.6,144l-15.3-5.2c0,0.4,0,0.9,0.1,1.3l15.2,4.7C51.6,144.5,51.6,144.2,51.6,144"/>
					<path class="st13" d="M51.7,144.7l-15.2-4.7c0.1,0.4,0.4,0.8,0.7,1.3l14.9,4.1C51.9,145.2,51.8,145,51.7,144.7"/>
					<path class="st12" d="M52.1,145.5l-14.9-4.1c0.3,0.4,0.8,0.8,1.3,1.3l14.3,3.6C52.5,146,52.3,145.7,52.1,145.5"/>
					<path class="st11" d="M52.9,146.2l-14.3-3.6c0.4,0.3,0.9,0.6,1.5,1l13.7,3.2C53.4,146.6,53.1,146.4,52.9,146.2"/>
				</g>
			</g>
			<g class="st1">
				<defs>
					<path id="SVGID_5_" class="st1" d="M96.7,129.4c-1,5.1-2.1,10.1-3.1,15.2c0.2-1-0.5-2-2.1-2.9c-5.1-2.9-17.7-4.1-28.1-2.7
						c-7.8,1.1-12.2,3.3-11.7,5.5c-1-5.1-2-10.1-3.1-15.2C48,126.7,53,124.2,62,123c11.9-1.6,26.4-0.2,32.2,3.1
						C96.1,127.2,96.9,128.3,96.7,129.4z"/>
				</defs>
				<clipPath id="SVGID_6_">
					<use xlink:href="#SVGID_5_"  style="overflow:visible;"/>
				</clipPath>
				<g class="st20">
					<path class="st3" d="M96.7,129.4l-3.1,15.2c0.2-1-0.5-2-2.1-2.9c-0.5-0.3-1-0.5-1.6-0.8l2.6-15.7c0.7,0.3,1.3,0.6,1.8,0.9
						C96.1,127.2,96.9,128.3,96.7,129.4"/>
					<path class="st5" d="M92.4,125.2l-2.6,15.7c-0.4-0.2-0.9-0.3-1.3-0.5l2.4-15.8C91.4,124.8,91.9,125,92.4,125.2"/>
					<path class="st6" d="M90.9,124.7l-2.4,15.8c-0.4-0.1-0.8-0.2-1.1-0.3l2.2-15.8C90,124.4,90.5,124.5,90.9,124.7"/>
					<path class="st7" d="M89.6,124.3l-2.2,15.8c-0.3-0.1-0.7-0.2-1.1-0.3l2-15.9C88.7,124,89.2,124.2,89.6,124.3"/>
					<path class="st8" d="M88.3,123.9l-2,15.9c-0.3-0.1-0.7-0.2-1-0.2l1.9-15.9C87.5,123.8,87.9,123.9,88.3,123.9"/>
					<path class="st9" d="M87.2,123.7l-1.9,15.9c-0.3-0.1-0.7-0.1-1-0.2l1.7-15.9C86.4,123.5,86.8,123.6,87.2,123.7"/>
					<path class="st10" d="M86,123.5l-1.7,15.9c-0.3-0.1-0.7-0.1-1-0.2l1.6-16C85.3,123.3,85.6,123.4,86,123.5"/>
					<path class="st11" d="M84.9,123.3l-1.6,16c-0.3-0.1-0.7-0.1-1-0.2l1.5-16C84.1,123.1,84.5,123.2,84.9,123.3"/>
					<path class="st12" d="M83.7,123.1l-1.5,16c-0.3,0-0.6-0.1-1-0.1l1.3-16C83,123,83.4,123,83.7,123.1"/>
					<path class="st13" d="M82.6,122.9l-1.3,16c-0.3,0-0.6-0.1-1-0.1l1.2-16C81.9,122.8,82.3,122.9,82.6,122.9"/>
					<path class="st14" d="M81.5,122.8l-1.2,16c-0.3,0-0.6-0.1-1-0.1l1-16C80.8,122.7,81.1,122.8,81.5,122.8"/>
					<path class="st15" d="M80.4,122.7l-1,16c-0.3,0-0.6-0.1-0.9-0.1l0.9-16C79.7,122.6,80,122.6,80.4,122.7"/>
					<path class="st16" d="M79.3,122.6l-0.9,16c-0.3,0-0.6,0-0.9-0.1l0.8-16.1C78.7,122.5,79,122.6,79.3,122.6"/>
					<path class="st17" d="M78.3,122.5l-0.8,16.1c-0.3,0-0.5,0-0.8-0.1l0.6-16.1C77.7,122.5,78,122.5,78.3,122.5"/>
					<path class="st18" d="M77.4,122.4l-0.6,16.1c-0.3,0-0.5,0-0.8,0l0.5-16.1C76.8,122.4,77.1,122.4,77.4,122.4"/>
					<path class="st19" d="M76.5,122.4L76,138.5c-0.2,0-0.5,0-0.7,0l0.4-16.1C76,122.4,76.2,122.4,76.5,122.4"/>
					<path class="st21" d="M75.7,122.4l-0.4,16.1c-0.2,0-0.5,0-0.7,0l0.3-16.1C75.2,122.3,75.4,122.4,75.7,122.4"/>
					<path class="st22" d="M74.9,122.3l-0.3,16.1c-0.2,0-0.4,0-0.6,0l0.2-16.1C74.5,122.3,74.7,122.3,74.9,122.3"/>
					<path class="st23" d="M74.3,122.3L74,138.4c-0.2,0-0.4,0-0.6,0l0.2-16.1C73.8,122.3,74,122.3,74.3,122.3"/>
					<path class="st24" d="M73.6,122.3l-0.2,16.1c-0.2,0-0.4,0-0.6,0l0.1-16.1C73.2,122.3,73.4,122.3,73.6,122.3"/>
					<path class="st25" d="M73,122.3l-0.1,16.1c-0.2,0-0.3,0-0.5,0l0-16.1C72.6,122.3,72.8,122.3,73,122.3"/>
					<path class="st26" d="M72.4,122.3l0,16.1c-0.2,0-0.3,0-0.5,0l-0.1-16.1C72,122.3,72.2,122.3,72.4,122.3"/>
					<path class="st27" d="M71.8,122.3l0.1,16.1c-0.2,0-0.3,0-0.5,0l-0.2-16.1C71.4,122.3,71.6,122.3,71.8,122.3"/>
					<path class="st28" d="M71.2,122.3l0.2,16.1c-0.2,0-0.4,0-0.5,0l-0.2-16.1C70.8,122.3,71,122.3,71.2,122.3"/>
					<path class="st29" d="M70.6,122.3l0.2,16.1c-0.2,0-0.4,0-0.5,0L70,122.3C70.2,122.3,70.4,122.3,70.6,122.3"/>
					<path class="st30" d="M70,122.3l0.3,16.1c-0.2,0-0.4,0-0.5,0l-0.4-16.1C69.6,122.3,69.8,122.3,70,122.3"/>
					<path class="st31" d="M69.4,122.4l0.4,16.1c-0.2,0-0.5,0-0.7,0l-0.5-16.1C68.8,122.4,69.1,122.4,69.4,122.4"/>
					<path class="st32" d="M68.5,122.4l0.5,16.1c-0.2,0-0.5,0-0.7,0l-0.6-16.1C67.9,122.4,68.2,122.4,68.5,122.4"/>
					<path class="st33" d="M67.6,122.4l0.6,16.1c-1.1,0.1-2.3,0.2-3.4,0.3l-1.1-16C65.1,122.6,66.3,122.5,67.6,122.4"/>
					<path class="st32" d="M63.8,122.8l1.1,16c-0.3,0-0.6,0.1-0.9,0.1l-1.2-16C63.1,122.8,63.4,122.8,63.8,122.8"/>
					<path class="st31" d="M62.8,122.9l1.2,16c-0.2,0-0.5,0.1-0.7,0.1c-0.1,0-0.1,0-0.2,0l-1.4-16c0.1,0,0.1,0,0.2,0
						C62.3,122.9,62.5,122.9,62.8,122.9"/>
					<path class="st30" d="M61.8,123l1.4,16c-0.3,0-0.5,0.1-0.7,0.1l-1.5-16C61.3,123.1,61.5,123,61.8,123"/>
					<path class="st29" d="M61,123.1l1.5,16c-0.2,0-0.5,0.1-0.7,0.1l-1.6-16C60.4,123.2,60.7,123.2,61,123.1"/>
					<path class="st28" d="M60.1,123.2l1.6,16c-0.3,0-0.5,0.1-0.8,0.1l-1.7-15.9C59.5,123.4,59.8,123.3,60.1,123.2"/>
					<path class="st27" d="M59.2,123.4l1.7,15.9c-0.3,0.1-0.6,0.1-0.9,0.2l-1.8-15.9C58.5,123.5,58.9,123.5,59.2,123.4"/>
					<path class="st26" d="M58.2,123.6l1.8,15.9c-0.3,0.1-0.7,0.1-1,0.2l-2-15.9C57.5,123.8,57.8,123.7,58.2,123.6"/>
					<path class="st25" d="M57.1,123.8l2,15.9c-0.4,0.1-0.8,0.2-1.1,0.3l-2.1-15.8C56.2,124.1,56.6,124,57.1,123.8"/>
					<path class="st24" d="M55.8,124.2l2.1,15.8c-0.4,0.1-0.7,0.2-1.1,0.3l-2.3-15.8C55,124.4,55.4,124.3,55.8,124.2"/>
					<path class="st23" d="M54.6,124.5l2.3,15.8c-0.3,0.1-0.6,0.2-0.9,0.3l-2.4-15.8C53.8,124.8,54.2,124.6,54.6,124.5"/>
					<path class="st22" d="M53.5,124.9l2.4,15.8c-0.3,0.1-0.5,0.2-0.8,0.3l-2.5-15.7C52.9,125.1,53.2,125,53.5,124.9"/>
					<path class="st21" d="M52.6,125.2l2.5,15.7c-0.2,0.1-0.5,0.2-0.7,0.3l-2.6-15.7C52,125.5,52.3,125.4,52.6,125.2"/>
					<path class="st19" d="M51.8,125.6l2.6,15.7c-0.2,0.1-0.4,0.2-0.6,0.3l-2.7-15.6C51.3,125.8,51.6,125.7,51.8,125.6"/>
					<path class="st18" d="M51.1,125.9l2.7,15.6c-0.2,0.1-0.3,0.2-0.5,0.3l-2.8-15.6C50.7,126.1,50.9,126,51.1,125.9"/>
					<path class="st17" d="M50.6,126.3l2.8,15.6c-0.1,0.1-0.3,0.2-0.4,0.3l-2.9-15.5C50.2,126.5,50.4,126.4,50.6,126.3"/>
					<path class="st16" d="M50.1,126.6l2.9,15.5c-0.1,0.1-0.2,0.2-0.4,0.3l-2.9-15.5C49.8,126.8,49.9,126.7,50.1,126.6"/>
					<path class="st15" d="M49.7,126.9l2.9,15.5c-0.1,0.1-0.2,0.2-0.3,0.3l-3-15.5C49.4,127.1,49.5,127,49.7,126.9"/>
					<path class="st14" d="M49.3,127.2l3,15.5c-0.1,0.1-0.2,0.2-0.2,0.3l-3-15.4C49.1,127.5,49.2,127.3,49.3,127.2"/>
					<path class="st13" d="M49,127.6l3,15.4c-0.1,0.1-0.1,0.2-0.2,0.3l-3-15.4C48.9,127.8,49,127.7,49,127.6"/>
					<path class="st12" d="M48.8,127.9l3,15.4c-0.1,0.1-0.1,0.2-0.1,0.3l-3-15.3C48.7,128.1,48.7,128,48.8,127.9"/>
					<path class="st11" d="M48.6,128.2l3,15.3c0,0.1-0.1,0.2-0.1,0.3l-3.1-15.3C48.6,128.5,48.6,128.4,48.6,128.2"/>
					<path class="st10" d="M48.5,128.6l3.1,15.3c0,0.1,0,0.2,0,0.3L48.5,129C48.5,128.9,48.5,128.7,48.5,128.6"/>
					<path class="st9" d="M48.5,129l3.1,15.2c0,0.1,0,0.2,0,0.3l-3.1-15.2C48.5,129.2,48.5,129.1,48.5,129"/>
				</g>
			</g>
			<g class="st1">
				<defs>
					<path id="SVGID_7_" class="st1" d="M48.6,129.3c0.2,0.9,1,1.7,2.4,2.6l2.7,14.9c-1.3-0.7-2-1.5-2.1-2.2
						C50.6,139.5,49.6,134.4,48.6,129.3z"/>
				</defs>
				<clipPath id="SVGID_8_">
					<use xlink:href="#SVGID_7_"  style="overflow:visible;"/>
				</clipPath>
				<g class="st34">
					<path class="st3" d="M48.6,129.3l3.1,15.2c0.2,0.8,0.8,1.5,2.1,2.2L51,131.9C49.5,131.1,48.7,130.2,48.6,129.3"/>
				</g>
			</g>
			<g class="st1">
				<defs>
					<path id="SVGID_9_" class="st1" d="M38.4,135.8l11.5-9c-2.1,1.6-1.9,3.5,1.1,5.2l-11,11.6C35.6,141,35.3,138.2,38.4,135.8z"/>
				</defs>
				<clipPath id="SVGID_10_">
					<use xlink:href="#SVGID_9_"  style="overflow:visible;"/>
				</clipPath>
				<g class="st35">
					<path class="st3" d="M38.4,135.8l11.5-9c-1.1,0.9-1.6,1.8-1.3,2.7l-12.2,10.4C36,138.4,36.7,137.1,38.4,135.8"/>
					<path class="st5" d="M36.4,139.8l12.2-10.4c0.1,0.4,0.3,0.7,0.6,1.1l-11.9,10.9C36.8,140.9,36.5,140.4,36.4,139.8"/>
					<path class="st6" d="M37.3,141.4l11.9-10.9c0.2,0.3,0.5,0.5,0.8,0.8l-11.4,11.3C38,142.2,37.6,141.8,37.3,141.4"/>
					<path class="st7" d="M38.5,142.6L50,131.3c0.3,0.2,0.6,0.4,1,0.6l-11,11.6C39.4,143.2,39,142.9,38.5,142.6"/>
					<path class="st8" d="M40,143.5l11-11.6c0,0,0,0,0,0L40,143.5C40,143.5,40,143.5,40,143.5"/>
				</g>
			</g>
			<g class="st1">
				<defs>
					<path id="SVGID_11_" class="st1" d="M52.8,147.6c-5.3-1-9.8-2.3-12.8-4l13.7,3.2c1.7,1,4.3,1.8,7.4,2.3
						C58.4,148.6,55.6,148.1,52.8,147.6z"/>
				</defs>
				<clipPath id="SVGID_12_">
					<use xlink:href="#SVGID_11_"  style="overflow:visible;"/>
				</clipPath>
				<g class="st36">
					<path class="st11" d="M53.7,146.8L40,143.5c0.2,0.1,0.4,0.2,0.6,0.3l13.5,3.1C53.9,146.9,53.8,146.8,53.7,146.8"/>
					<path class="st10" d="M54,146.9l-13.5-3.1c0.8,0.4,1.8,0.9,2.8,1.3l12.3,2.6C55.1,147.4,54.5,147.2,54,146.9"/>
					<path class="st9" d="M55.7,147.7l-12.3-2.6c1.2,0.4,2.5,0.9,3.8,1.2l10.7,2C57.1,148.1,56.4,147.9,55.7,147.7"/>
					<path class="st8" d="M57.9,148.4l-10.7-2c1.6,0.5,3.4,0.9,5.3,1.2l8.4,1.5C59.9,148.9,58.9,148.6,57.9,148.4"/>
					<path class="st7" d="M61,149.1l-8.4-1.5c0.1,0,0.2,0,0.3,0.1l8.3,1.5C61.1,149.1,61,149.1,61,149.1"/>
				</g>
			</g>
			<g class="st1">
				<defs>
					<path id="SVGID_13_" class="st1" d="M93.5,144.6c-0.4,2-4.7,3.9-11.7,4.9c-10.4,1.4-23,0.2-28.1-2.7L51,131.9
						c5.9,3.3,20.3,4.7,32.2,3.1c8.1-1.1,13-3.3,13.4-5.6C95.6,134.5,94.6,139.5,93.5,144.6z"/>
				</defs>
				<clipPath id="SVGID_14_">
					<use xlink:href="#SVGID_13_"  style="overflow:visible;"/>
				</clipPath>
				<g class="st37">
					<path class="st3" d="M51,131.9l2.7,14.9c1.3,0.8,3.2,1.4,5.4,1.9l-1.9-14.6C54.7,133.5,52.5,132.8,51,131.9"/>
					<path class="st5" d="M57.2,134.1l1.9,14.6c0.6,0.1,1.2,0.3,1.9,0.4l-1.7-14.5C58.6,134.4,57.9,134.3,57.2,134.1"/>
					<path class="st6" d="M59.4,134.6l1.7,14.5c0.5,0.1,1.1,0.2,1.7,0.3l-1.4-14.5C60.6,134.8,60,134.7,59.4,134.6"/>
					<path class="st7" d="M61.3,134.9l1.4,14.5c0.5,0.1,1,0.1,1.6,0.2l-1.2-14.4C62.5,135,61.9,135,61.3,134.9"/>
					<path class="st8" d="M63.1,135.1l1.2,14.4c0.5,0.1,1,0.1,1.5,0.2l-1-14.4C64.2,135.3,63.6,135.2,63.1,135.1"/>
					<path class="st9" d="M64.8,135.3l1,14.4c0.5,0,1,0.1,1.5,0.1l-0.8-14.4C65.9,135.4,65.4,135.4,64.8,135.3"/>
					<path class="st10" d="M66.5,135.5l0.8,14.4c0.5,0,1,0.1,1.5,0.1l-0.5-14.4C67.7,135.5,67.1,135.5,66.5,135.5"/>
					<path class="st11" d="M68.3,135.6l0.5,14.4c0.5,0,1,0,1.6,0.1l-0.3-14.4C69.5,135.6,68.9,135.6,68.3,135.6"/>
					<path class="st12" d="M70.1,135.6l0.3,14.4c0.5,0,1.1,0,1.7,0L72,135.7C71.3,135.7,70.7,135.7,70.1,135.6"/>
					<path class="st13" d="M72,135.7L72,150c0.6,0,1.2,0,1.8,0l0.2-14.4C73.3,135.7,72.6,135.7,72,135.7"/>
					<path class="st14" d="M74,135.7L73.8,150c0.7,0,1.4,0,2.1-0.1l0.5-14.4C75.6,135.6,74.8,135.7,74,135.7"/>
					<path class="st15" d="M76.4,135.6L75.9,150c0.9,0,1.9-0.1,2.8-0.2l0.9-14.4C78.6,135.5,77.5,135.6,76.4,135.6"/>
					<path class="st16" d="M79.6,135.4l-0.9,14.4c1.1-0.1,2.1-0.2,3.1-0.3c1.4-0.2,2.8-0.4,4-0.7l2-14.6c-1.4,0.3-2.9,0.6-4.6,0.8
						C82,135.2,80.8,135.3,79.6,135.4"/>
					<path class="st15" d="M87.8,134.2l-2,14.6c0.8-0.2,1.5-0.4,2.2-0.6l2.3-14.6C89.5,133.8,88.7,134,87.8,134.2"/>
					<path class="st14" d="M90.2,133.6L88,148.2c0.5-0.1,1-0.3,1.4-0.5l2.5-14.7C91.3,133.2,90.8,133.4,90.2,133.6"/>
					<path class="st13" d="M91.8,133.1l-2.5,14.7c0.4-0.1,0.7-0.3,1-0.4l2.6-14.8C92.7,132.7,92.3,132.9,91.8,133.1"/>
					<path class="st12" d="M93,132.6l-2.6,14.8c0.3-0.1,0.6-0.3,0.8-0.4l2.8-14.8C93.7,132.3,93.4,132.4,93,132.6"/>
					<path class="st11" d="M94,132.1l-2.8,14.8c0.2-0.1,0.5-0.3,0.7-0.4l2.9-14.9C94.5,131.8,94.3,132,94,132.1"/>
					<path class="st10" d="M94.8,131.7l-2.9,14.9c0.2-0.1,0.4-0.3,0.6-0.4l2.9-14.9C95.2,131.4,95,131.5,94.8,131.7"/>
					<path class="st9" d="M95.4,131.2l-2.9,14.9c0.2-0.1,0.3-0.3,0.5-0.4l3-15C95.8,130.9,95.6,131,95.4,131.2"/>
					<path class="st8" d="M95.9,130.7l-3,15c0.1-0.1,0.3-0.3,0.3-0.4l3.1-15.1C96.2,130.4,96.1,130.6,95.9,130.7"/>
					<path class="st7" d="M96.3,130.2l-3.1,15.1c0.1-0.2,0.2-0.3,0.2-0.5l3.1-15.1C96.5,129.9,96.4,130,96.3,130.2"/>
					<path class="st6" d="M96.6,129.7l-3.1,15.1c0-0.1,0-0.2,0.1-0.2l3.1-15.2C96.6,129.5,96.6,129.6,96.6,129.7"/>
				</g>
			</g>
			<g class="st1">
				<defs>
					<path id="SVGID_15_" class="st1" d="M61.1,149.1c-2.8-0.5-5.5-1-8.3-1.5c10.3,1.9,23.8,2.2,35.7,0.7c1.3-0.2,2.6-0.4,3.8-0.6
						c0,0,0,0,0,0c-2.8,0.5-5.5,1-8.3,1.5c-0.7,0.1-1.4,0.2-2.2,0.3C75,150.4,67.1,150.2,61.1,149.1z"/>
				</defs>
				<clipPath id="SVGID_16_">
					<use xlink:href="#SVGID_15_"  style="overflow:visible;"/>
				</clipPath>
				<g class="st38">
					<path class="st3" d="M61.1,149.1l-8.3-1.5c10.3,1.9,23.8,2.2,35.7,0.7c1.3-0.2,2.6-0.4,3.8-0.6l-8.3,1.5
						c-0.7,0.1-1.4,0.2-2.2,0.3C75,150.4,67.1,150.2,61.1,149.1"/>
				</g>
			</g>
			<g class="st1">
				<defs>
					<path id="SVGID_17_" class="st1" d="M95.3,126.8c3.8,3,7.6,6.1,11.5,9.1c6,4.8-1.6,10.1-18.3,12.3c-18,2.4-39.7,0.3-48.5-4.7
						l11-11.6c5.9,3.3,20.3,4.7,32.2,3.1C94.3,133.5,99.3,130,95.3,126.8z"/>
				</defs>
				<clipPath id="SVGID_18_">
					<use xlink:href="#SVGID_17_"  style="overflow:visible;"/>
				</clipPath>
				<g class="st39">
					<path class="st8" d="M40,143.5l11-11.6c0.3,0.2,0.6,0.3,1,0.5l-10.5,11.9C41,144.1,40.5,143.8,40,143.5"/>
					<path class="st9" d="M41.5,144.3L52,132.4c0.3,0.2,0.7,0.3,1,0.4L43.1,145C42.5,144.8,42,144.5,41.5,144.3"/>
					<path class="st10" d="M43.1,145l9.9-12.1c0.3,0.1,0.7,0.3,1.1,0.4l-9.4,12.3C44.1,145.4,43.6,145.2,43.1,145"/>
					<path class="st11" d="M44.7,145.6l9.4-12.3c0.4,0.1,0.7,0.2,1.1,0.3l-8.8,12.5C45.7,145.9,45.2,145.7,44.7,145.6"/>
					<path class="st12" d="M46.3,146.1l8.8-12.5c0.4,0.1,0.7,0.2,1.1,0.3L48,146.5C47.4,146.4,46.9,146.2,46.3,146.1"/>
					<path class="st13" d="M48,146.5l8.3-12.7c0.4,0.1,0.8,0.2,1.2,0.3L49.8,147C49.2,146.8,48.6,146.7,48,146.5"/>
					<path class="st14" d="M49.8,147l7.7-12.8c0.4,0.1,0.8,0.2,1.2,0.3l-7.1,12.9C50.9,147.2,50.3,147.1,49.8,147"/>
					<path class="st15" d="M51.6,147.3l7.1-12.9c0.4,0.1,0.8,0.2,1.2,0.2l-6.5,13C52.8,147.6,52.2,147.5,51.6,147.3"/>
					<path class="st16" d="M53.4,147.7l6.5-13c0.4,0.1,0.8,0.1,1.3,0.2L55.3,148C54.7,147.9,54,147.8,53.4,147.7"/>
					<path class="st17" d="M55.3,148l5.8-13.1c0.4,0.1,0.9,0.1,1.3,0.2l-5.2,13.2C56.6,148.2,55.9,148.1,55.3,148"/>
					<path class="st18" d="M57.2,148.3l5.2-13.2c0.4,0.1,0.9,0.1,1.3,0.2l-4.5,13.3C58.5,148.4,57.9,148.4,57.2,148.3"/>
					<path class="st19" d="M59.2,148.5l4.5-13.3c0.4,0,0.9,0.1,1.3,0.1l-3.8,13.4C60.5,148.7,59.9,148.6,59.2,148.5"/>
					<path class="st21" d="M61.2,148.7l3.8-13.4c0.4,0,0.9,0.1,1.3,0.1l-3.2,13.4C62.5,148.8,61.9,148.8,61.2,148.7"/>
					<path class="st22" d="M63.2,148.9l3.2-13.4c0.4,0,0.9,0.1,1.3,0.1L65.2,149C64.5,149,63.9,148.9,63.2,148.9"/>
					<path class="st23" d="M65.2,149l2.5-13.5c0.4,0,0.9,0,1.3,0.1l-1.9,13.5C66.5,149.1,65.8,149.1,65.2,149"/>
					<path class="st24" d="M67.1,149.1l1.9-13.5c0.4,0,0.9,0,1.3,0L69,149.2C68.4,149.2,67.8,149.1,67.1,149.1"/>
					<path class="st25" d="M69,149.2l1.2-13.5c0.4,0,0.8,0,1.3,0L71,149.2C70.3,149.2,69.7,149.2,69,149.2"/>
					<path class="st26" d="M71,149.2l0.6-13.6c0.4,0,0.9,0,1.3,0l0.1,13.6C72.3,149.2,71.6,149.2,71,149.2"/>
					<path class="st27" d="M73,149.2l-0.1-13.6c0.5,0,0.9,0,1.4,0l0.8,13.6C74.4,149.2,73.7,149.2,73,149.2"/>
					<path class="st28" d="M75.1,149.2l-0.8-13.6c0.5,0,1.1,0,1.6,0l1.6,13.5C76.7,149.2,75.9,149.2,75.1,149.2"/>
					<path class="st29" d="M77.5,149.2l-1.6-13.5c0.9,0,1.8-0.1,2.7-0.1l3,13.5C80.3,149,78.9,149.1,77.5,149.2"/>
					<path class="st30" d="M81.6,148.9l-3-13.5c1.3-0.1,2.5-0.2,3.8-0.4l4.9,13.3C85.5,148.6,83.6,148.8,81.6,148.9"/>
					<path class="st29" d="M87.3,148.4l-4.9-13.3c0.3,0,0.5-0.1,0.8-0.1c0.9-0.1,1.8-0.3,2.6-0.4l6.7,13c-1.3,0.2-2.6,0.4-3.9,0.6
						C88.2,148.3,87.8,148.3,87.3,148.4"/>
					<path class="st28" d="M92.5,147.6l-6.7-13c0.9-0.2,1.7-0.3,2.4-0.5l7.9,12.8C95,147.1,93.8,147.4,92.5,147.6"/>
					<path class="st27" d="M96.2,146.9l-7.9-12.8c0.7-0.2,1.4-0.3,2-0.5l8.9,12.5C98.2,146.4,97.2,146.6,96.2,146.9"/>
					<path class="st26" d="M99.1,146.1l-8.9-12.5c0.6-0.2,1.1-0.3,1.6-0.5l9.7,12.2C100.8,145.6,100,145.8,99.1,146.1"/>
					<path class="st25" d="M101.5,145.3l-9.7-12.2c0.4-0.2,0.8-0.3,1.2-0.5l10.3,12C102.7,144.8,102.1,145.1,101.5,145.3"/>
					<path class="st24" d="M103.3,144.6l-10.3-12c0.3-0.1,0.6-0.3,0.9-0.5l10.8,11.8C104.3,144.1,103.8,144.4,103.3,144.6"/>
					<path class="st23" d="M104.7,143.9l-10.8-11.8c0.3-0.1,0.5-0.3,0.8-0.4l11.1,11.5C105.5,143.5,105.1,143.7,104.7,143.9"/>
					<path class="st22" d="M105.8,143.2l-11.1-11.5c0.2-0.1,0.4-0.3,0.6-0.4l11.5,11.3C106.5,142.8,106.2,143,105.8,143.2"/>
					<path class="st21" d="M106.8,142.6l-11.5-11.3c0.2-0.1,0.3-0.3,0.5-0.4l11.7,11.1C107.3,142.2,107,142.4,106.8,142.6"/>
					<path class="st19" d="M107.5,142l-11.7-11.1c0.1-0.1,0.3-0.3,0.4-0.4l11.9,10.9C107.9,141.6,107.7,141.8,107.5,142"/>
					<path class="st18" d="M108,141.4l-11.9-10.9c0.1-0.1,0.2-0.3,0.3-0.4l12,10.7C108.3,141,108.2,141.2,108,141.4"/>
					<path class="st17" d="M108.4,140.7l-12-10.7c0.1-0.1,0.1-0.3,0.2-0.4l12.1,10.5C108.6,140.3,108.6,140.5,108.4,140.7"/>
					<path class="st16" d="M108.7,140.1l-12.1-10.5c0-0.1,0.1-0.3,0.1-0.4l12.2,10.3C108.8,139.7,108.8,139.9,108.7,140.1"/>
					<path class="st15" d="M108.8,139.5l-12.2-10.3c0-0.1,0-0.3,0-0.4l12.2,10.1C108.9,139.1,108.9,139.3,108.8,139.5"/>
					<path class="st14" d="M108.8,138.9l-12.2-10.1c0-0.1,0-0.3-0.1-0.4l12.1,9.9C108.8,138.5,108.8,138.7,108.8,138.9"/>
					<path class="st13" d="M108.7,138.3l-12.1-9.9c0-0.1-0.1-0.3-0.2-0.4l12,9.7C108.5,137.9,108.6,138.1,108.7,138.3"/>
					<path class="st12" d="M108.4,137.6l-12-9.7c-0.1-0.1-0.2-0.3-0.3-0.4L108,137C108.1,137.2,108.3,137.4,108.4,137.6"/>
					<path class="st11" d="M108,137l-11.9-9.4c-0.1-0.1-0.3-0.3-0.4-0.4l11.6,9.2C107.6,136.6,107.8,136.8,108,137"/>
					<path class="st10" d="M107.3,136.3l-11.6-9.2c-0.1-0.1-0.2-0.2-0.3-0.3l11.5,9.1C107,136,107.2,136.2,107.3,136.3"/>
				</g>
			</g>
		</g>
	</g>
</g>
<g>
	<g>
		<g class="st1">
			<g>
				<polygon class="st40" points="86.6,71 90.5,65.6 59,123 61.8,116.2 				"/>
			</g>
			<g>
				<polygon class="st41" points="95.1,68.1 63.5,125.5 61.8,116.2 86.6,71 				"/>
			</g>
			<g>
				<polygon class="st40" points="91.1,73.5 95.1,68.1 63.5,125.5 66.3,118.7 				"/>
			</g>
			<g>
				<polygon class="st41" points="99.7,70.6 68.1,128 66.3,118.7 91.1,73.5 				"/>
			</g>
			<g>
				<polygon class="st40" points="95.8,76 99.7,70.6 68.1,128 70.9,121.2 				"/>
			</g>
			<g>
				<polygon class="st41" points="104.3,73.1 72.7,130.5 70.9,121.2 95.8,76 				"/>
			</g>
			<g>
				<polygon class="st42" points="42.8,73.5 34.8,68.8 90.5,65.6 86.6,71 				"/>
			</g>
			<g>
				<polygon class="st43" points="61.8,116.2 59,123 34.8,68.8 42.8,73.5 				"/>
			</g>
			<g>
				<polygon class="st40" points="100.3,78.5 104.3,73.1 72.7,130.5 75.5,123.6 				"/>
			</g>
			<g>
				<polygon class="st44" points="108.7,75.7 77.3,132.9 75.5,123.6 100.3,78.5 				"/>
			</g>
			<g>
				<polygon class="st45" points="39.4,71.3 95.1,68.1 86.6,71 42.8,73.5 				"/>
			</g>
			<g>
				<polygon class="st41" points="63.5,125.5 39.4,71.3 42.8,73.5 61.8,116.2 				"/>
			</g>
			<g>
				<polygon class="st43" points="66.3,118.7 63.5,125.5 39.4,71.3 47.3,76 				"/>
			</g>
			<g>
				<polygon class="st42" points="47.3,76 39.4,71.3 95.1,68.1 91.1,73.5 				"/>
			</g>
			<g>
				<polygon class="st46" points="104.8,81 108.7,75.7 77.3,132.9 80,126.1 				"/>
			</g>
			<g>
				<polygon class="st41" points="113.3,78 81.7,135.4 80,126.1 104.8,81 				"/>
			</g>
			<g>
				<polygon class="st45" points="43.9,73.7 99.7,70.6 91.1,73.5 47.3,76 				"/>
			</g>
			<g>
				<polygon class="st41" points="68.1,128 43.9,73.7 47.3,76 66.3,118.7 				"/>
			</g>
			<g>
				<polygon class="st43" points="70.9,121.2 68.1,128 43.9,73.7 51.9,78.5 				"/>
			</g>
			<g>
				<polygon class="st42" points="51.9,78.5 43.9,73.7 99.7,70.6 95.8,76 				"/>
			</g>
			<g>
				<polygon class="st45" points="48.5,76.2 104.3,73.1 95.8,76 51.9,78.5 				"/>
			</g>
			<g>
				<polygon class="st41" points="72.7,130.5 48.5,76.2 51.9,78.5 70.9,121.2 				"/>
			</g>
			<g>
				<polygon class="st42" points="56.5,81 48.5,76.2 104.3,73.1 100.3,78.5 				"/>
			</g>
			<g>
				<polygon class="st43" points="75.5,123.6 72.7,130.5 48.5,76.2 56.5,81 				"/>
			</g>
			<g>
				<polygon class="st47" points="77.3,132.9 53.2,78.8 56.5,81 75.5,123.6 				"/>
			</g>
			<g>
				<polygon class="st48" points="53.2,78.8 108.7,75.7 100.3,78.5 56.5,81 				"/>
			</g>
			<g>
				<polygon class="st42" points="61,83.4 53.2,78.8 108.7,75.7 104.8,81 				"/>
			</g>
			<g>
				<polygon class="st49" points="80,126.1 77.3,132.9 53.2,78.8 61,83.4 				"/>
			</g>
			<g>
				<polygon class="st45" points="57.6,81.2 113.3,78 104.8,81 61,83.4 				"/>
			</g>
			<g>
				<polygon class="st41" points="81.7,135.4 57.6,81.2 61,83.4 80,126.1 				"/>
			</g>
		</g>
	</g>
</g>
<g>
	<g>
		<g class="st1">
			<g class="st1">
				<defs>
					<path id="SVGID_19_" class="st1" d="M145.5,79.4c-1-0.8-2.1-1.5-3.4-2.2c-17.8-10.1-61.7-14.4-98-9.5
						c-17.9,2.4-30.7,6.6-36.8,11.4c0.3-0.3,0.8-0.6,1.2-0.9c0.2-0.1,0.4-0.3,0.6-0.5c0.3-0.3,0.8-0.6,1.2-0.9
						c0.2-0.1,0.4-0.3,0.6-0.5c0.3-0.3,0.8-0.6,1.2-0.9c0.2-0.1,0.4-0.3,0.6-0.5c0.3-0.3,0.8-0.6,1.2-0.9c0.3-0.3,0.8-0.6,1.2-0.9
						c0.2-0.1,0.4-0.3,0.6-0.5c0.3-0.3,0.8-0.6,1.2-0.9c0.2-0.1,0.4-0.3,0.6-0.5c0.3-0.3,0.8-0.6,1.2-0.9c0.2-0.1,0.4-0.5,0.6-0.5
						c5.1-4,15.8-7.5,30.7-9.5c30.3-4.1,66.9-0.5,81.7,7.9c1.1,0.6,2,1.2,2.8,1.9C137.9,73.3,141.7,76.4,145.5,79.4z"/>
				</defs>
				<clipPath id="SVGID_20_">
					<use xlink:href="#SVGID_19_"  style="overflow:visible;"/>
				</clipPath>
				<g class="st50">
					<path class="st3" d="M145.5,79.4l-11.5-9.1c-0.8-0.6-1.7-1.2-2.8-1.9c-14.9-8.4-51.5-12-81.7-7.9c-14.9,2-25.6,5.5-30.7,9.5
						l-11.5,9c6.2-4.8,18.9-9,36.8-11.4c36.3-4.9,80.2-0.6,98,9.5C143.5,77.9,144.6,78.6,145.5,79.4"/>
				</g>
			</g>
			<g class="st1">
				<defs>
					<path id="SVGID_21_" class="st1" d="M107.9,104.6c24.4-4.3,33.6-13.1,20.5-20.6c-14.1-8-48.9-11.4-77.6-7.5S10.2,90,24.3,98
						l-13.7-3.2C-7.2,84.7,7.8,72.6,44.1,67.7s80.2-0.6,98,9.5c16.5,9.4,4.8,20.5-25.9,26C113.5,103.6,110.7,104.1,107.9,104.6z"/>
				</defs>
				<clipPath id="SVGID_22_">
					<use xlink:href="#SVGID_21_"  style="overflow:visible;"/>
				</clipPath>
				<g class="st51">
					<path class="st5" d="M107.9,104.6l8.3-1.5c7.3-1.3,13.6-2.9,18.6-4.8l-12.2,2.5C118.7,102.3,113.7,103.6,107.9,104.6"/>
					<path class="st6" d="M122.7,100.8l12.2-2.5c6-2.2,10.2-4.7,12.6-7.3l-14.8,4C130.8,97.1,127.4,99.1,122.7,100.8"/>
					<path class="st7" d="M132.7,95l14.8-4c1.4-1.6,2.2-3.2,2.2-4.9l-15.3,5C134.4,92.5,133.8,93.8,132.7,95"/>
					<path class="st8" d="M134.4,91.2l15.3-5c0-1.3-0.4-2.5-1.3-3.8l-15,5.8C134.1,89.1,134.4,90.2,134.4,91.2"/>
					<path class="st9" d="M133.4,88.1l15-5.8c-0.7-1.1-1.8-2.1-3.2-3.2l-14.4,6.5C132,86.5,132.8,87.3,133.4,88.1"/>
					<path class="st10" d="M130.9,85.6l14.4-6.5c-0.9-0.7-1.9-1.3-3.1-2c-0.4-0.3-0.9-0.5-1.4-0.7l-13.4,7c0.4,0.2,0.7,0.4,1.1,0.6
						C129.4,84.6,130.2,85.1,130.9,85.6"/>
					<path class="st11" d="M127.4,83.5l13.4-7c-1.6-0.8-3.4-1.6-5.3-2.4l-12.3,7.5C124.7,82.2,126.1,82.8,127.4,83.5"/>
					<path class="st12" d="M123.1,81.6l12.3-7.5c-1.9-0.7-3.9-1.4-6.1-2l-11,8C120,80.5,121.6,81,123.1,81.6"/>
					<path class="st13" d="M118.3,80l11-8c-2.1-0.6-4.4-1.2-6.8-1.8l-9.6,8.3C114.8,79,116.6,79.5,118.3,80"/>
					<path class="st14" d="M112.9,78.6l9.6-8.3c-2.4-0.6-5-1.1-7.6-1.5l-8,8.6C109,77.8,111,78.2,112.9,78.6"/>
					<path class="st15" d="M106.9,77.4l8-8.6c-2.8-0.5-5.6-0.9-8.5-1.3l-6.3,8.9C102.5,76.7,104.7,77,106.9,77.4"/>
					<path class="st16" d="M100.1,76.4l6.3-8.9c-3.2-0.4-6.4-0.7-9.7-1l-4.2,9.1C95.1,75.8,97.7,76.1,100.1,76.4"/>
					<path class="st17" d="M92.5,75.6l4.2-9.1c-3.7-0.3-7.5-0.5-11.4-0.7l-1.9,9.3C86.5,75.2,89.5,75.4,92.5,75.6"/>
					<path class="st18" d="M83.5,75.1l1.9-9.3c-4.7-0.2-9.6-0.2-14.4-0.1l1.1,9.3C75.9,74.9,79.7,74.9,83.5,75.1"/>
					<path class="st19" d="M72.1,75L71,65.7c-9.1,0.2-18.2,0.8-26.8,2c-10.4,1.4-19,3.4-25.6,5.7l12,7.7c5.2-1.9,12.1-3.4,20.3-4.5
						C57.7,75.6,64.9,75.1,72.1,75"/>
					<path class="st18" d="M30.6,81.1l-12-7.7c-3,1.1-5.5,2.2-7.7,3.4l13.6,7C26.2,82.8,28.2,81.9,30.6,81.1"/>
					<path class="st17" d="M24.5,83.8l-13.6-7c-1.7,1-3.2,2-4.3,3l14.6,6.3C22,85.3,23.1,84.5,24.5,83.8"/>
					<path class="st16" d="M21.1,86.1L6.5,79.8c-1,0.9-1.8,1.8-2.4,2.8l15.1,5.8C19.6,87.6,20.2,86.8,21.1,86.1"/>
					<path class="st15" d="M19.2,88.3L4.1,82.6c-0.5,0.9-0.8,1.8-0.9,2.7l15.3,5.2C18.5,89.7,18.7,89,19.2,88.3"/>
					<path class="st14" d="M18.4,90.4L3.2,85.2c-0.1,0.9,0,1.7,0.3,2.6l15.2,4.7C18.4,91.8,18.3,91.1,18.4,90.4"/>
					<path class="st13" d="M18.6,92.5L3.4,87.8c0.3,0.8,0.8,1.7,1.5,2.5l14.9,4.1C19.2,93.8,18.9,93.2,18.6,92.5"/>
					<path class="st12" d="M19.8,94.5L4.9,90.4c0.7,0.9,1.6,1.7,2.7,2.5l14.3,3.6C21.1,95.8,20.3,95.2,19.8,94.5"/>
					<path class="st11" d="M21.9,96.5L7.6,92.9c0.9,0.7,1.9,1.3,3,2L24.3,98C23.4,97.5,22.6,97,21.9,96.5"/>
				</g>
			</g>
			<g class="st1">
				<defs>
					<path id="SVGID_23_" class="st1" d="M137.4,76.9c-1,5.1-2.1,10.1-3.1,15.2c0.5-2.7-1.3-5.4-5.8-8c-14.1-8-48.9-11.4-77.6-7.5
						c-21.6,2.9-33.7,9-32.4,15.3c0-0.2-0.1-0.5-0.2-0.8c-0.2-0.8-0.3-1.5-0.5-2.3c-0.3-1.5-0.6-3-0.9-4.6c-0.5-2.5-1-5.1-1.5-7.6
						c-1.3-6.6,11.4-13.1,34.1-16.1c30.3-4.1,66.9-0.5,81.7,7.9C136,71.2,138,74.1,137.4,76.9z"/>
				</defs>
				<clipPath id="SVGID_24_">
					<use xlink:href="#SVGID_23_"  style="overflow:visible;"/>
				</clipPath>
				<g class="st52">
					<path class="st3" d="M137.4,76.9L134.3,92c0.5-2.7-1.3-5.4-5.8-8c-1.3-0.7-2.8-1.4-4.4-2.1l2.6-15.7c1.7,0.7,3.3,1.4,4.7,2.2
						C136,71.2,138,74.1,137.4,76.9"/>
					<path class="st5" d="M126.6,66.2L124,81.9c-1.1-0.5-2.4-0.9-3.7-1.3l2.4-15.8C124.1,65.3,125.4,65.8,126.6,66.2"/>
					<path class="st6" d="M122.7,64.8l-2.4,15.8c-1-0.3-2.1-0.6-3.2-1l2.2-15.8C120.6,64.2,121.7,64.5,122.7,64.8"/>
					<path class="st7" d="M119.4,63.8l-2.2,15.8c-1-0.3-2-0.5-3-0.8l2-15.9C117.3,63.3,118.4,63.6,119.4,63.8"/>
					<path class="st8" d="M116.3,63l-2,15.9c-0.9-0.2-1.9-0.4-2.8-0.6l1.9-15.9C114.3,62.6,115.3,62.8,116.3,63"/>
					<path class="st9" d="M113.3,62.4l-1.9,15.9c-0.9-0.2-1.8-0.4-2.8-0.5l1.7-15.9C111.4,62,112.4,62.2,113.3,62.4"/>
					<path class="st10" d="M110.4,61.8l-1.7,15.9c-0.9-0.2-1.8-0.3-2.7-0.5l1.6-16C108.5,61.4,109.5,61.6,110.4,61.8"/>
					<path class="st11" d="M107.5,61.3l-1.6,16c-0.9-0.1-1.8-0.3-2.7-0.4l1.5-16C105.6,61,106.6,61.1,107.5,61.3"/>
					<path class="st12" d="M104.7,60.8l-1.5,16c-0.9-0.1-1.8-0.3-2.7-0.4l1.3-16C102.8,60.6,103.7,60.7,104.7,60.8"/>
					<path class="st13" d="M101.8,60.4l-1.3,16c-0.9-0.1-1.8-0.2-2.7-0.3l1.2-16C100,60.2,100.9,60.3,101.8,60.4"/>
					<path class="st14" d="M99,60.1l-1.2,16c-0.9-0.1-1.8-0.2-2.7-0.3l1-16C97.1,59.9,98.1,60,99,60.1"/>
					<path class="st15" d="M96.2,59.8l-1,16c-0.8-0.1-1.7-0.2-2.5-0.2l0.9-16C94.4,59.6,95.3,59.7,96.2,59.8"/>
					<path class="st16" d="M93.5,59.6l-0.9,16c-0.8-0.1-1.6-0.1-2.5-0.2l0.8-16C91.8,59.4,92.6,59.5,93.5,59.6"/>
					<path class="st17" d="M90.9,59.4l-0.8,16c-0.8-0.1-1.5-0.1-2.3-0.1l0.6-16.1C89.3,59.3,90.1,59.3,90.9,59.4"/>
					<path class="st18" d="M88.5,59.2l-0.6,16.1c-0.7,0-1.4-0.1-2.1-0.1l0.5-16.1C87,59.1,87.8,59.2,88.5,59.2"/>
					<path class="st19" d="M86.3,59.1l-0.5,16.1c-0.6,0-1.3-0.1-1.9-0.1L84.3,59C84.9,59,85.6,59.1,86.3,59.1"/>
					<path class="st21" d="M84.3,59l-0.4,16.1c-0.6,0-1.3,0-1.9-0.1l0.3-16.1C82.9,59,83.6,59,84.3,59"/>
					<path class="st22" d="M82.3,58.9L81.9,75c-0.5,0-1.1,0-1.6,0l0.2-16.1C81.2,58.9,81.7,58.9,82.3,58.9"/>
					<path class="st23" d="M80.6,58.9L80.4,75c-0.5,0-1.1,0-1.6,0l0.2-16.1C79.5,58.9,80,58.9,80.6,58.9"/>
					<path class="st24" d="M78.9,58.9L78.8,75c-0.5,0-1,0-1.5,0l0.1-16.1C77.8,58.9,78.4,58.9,78.9,58.9"/>
					<path class="st25" d="M77.3,58.9l-0.1,16.1c-0.5,0-0.9,0-1.4,0l0-16.1C76.3,58.9,76.8,58.9,77.3,58.9"/>
					<path class="st26" d="M75.8,58.9l0,16.1c-0.5,0-0.9,0-1.4,0l-0.1-16.1C74.8,58.9,75.3,58.9,75.8,58.9"/>
					<path class="st27" d="M74.3,58.9l0.1,16.1c-0.5,0-0.9,0-1.4,0l-0.2-16.1C73.3,58.9,73.8,58.9,74.3,58.9"/>
					<path class="st28" d="M72.8,58.9L73,75c-0.5,0-1,0-1.5,0l-0.2-16.1C71.8,58.9,72.3,58.9,72.8,58.9"/>
					<path class="st29" d="M71.3,58.9L71.5,75c-0.5,0-1,0-1.5,0l-0.3-16.1C70.3,58.9,70.8,58.9,71.3,58.9"/>
					<path class="st30" d="M69.7,58.9L70,75c-0.5,0-1,0-1.5,0L68.2,59C68.7,59,69.2,59,69.7,58.9"/>
					<path class="st31" d="M68.2,59l0.4,16.1c-0.7,0-1.4,0.1-2.1,0.1L66,59.1C66.7,59.1,67.4,59,68.2,59"/>
					<path class="st32" d="M66,59.1l0.5,16.1c-0.7,0-1.4,0.1-2,0.1l-0.6-16.1C64.6,59.2,65.3,59.1,66,59.1"/>
					<path class="st33" d="M63.8,59.2l0.6,16.1c-3.2,0.2-6.3,0.4-9.4,0.8L54,60C57.2,59.7,60.5,59.4,63.8,59.2"/>
					<path class="st32" d="M54,60l1.1,16c-0.8,0.1-1.6,0.2-2.4,0.3l-1.2-16C52.3,60.2,53.1,60.1,54,60"/>
					<path class="st31" d="M51.5,60.3l1.2,16c-0.6,0.1-1.2,0.2-1.8,0.2c-0.2,0-0.3,0-0.5,0.1l-1.4-16c0.2,0,0.3,0,0.5-0.1
						C50.2,60.5,50.8,60.4,51.5,60.3"/>
					<path class="st30" d="M49,60.6l1.4,16c-0.7,0.1-1.4,0.2-2,0.3l-1.5-16C47.6,60.8,48.3,60.7,49,60.6"/>
					<path class="st29" d="M46.9,60.9l1.5,16c-0.7,0.1-1.4,0.2-2,0.3l-1.6-16C45.5,61.1,46.2,61,46.9,60.9"/>
					<path class="st28" d="M44.8,61.3l1.6,16c-0.8,0.1-1.5,0.3-2.2,0.4l-1.7-15.9C43.2,61.5,44,61.4,44.8,61.3"/>
					<path class="st27" d="M42.4,61.7l1.7,15.9c-0.8,0.2-1.6,0.3-2.4,0.5l-1.8-15.9C40.7,62,41.5,61.8,42.4,61.7"/>
					<path class="st26" d="M39.9,62.2l1.8,15.9c-0.9,0.2-1.8,0.4-2.7,0.6l-2-15.9C38,62.6,38.9,62.4,39.9,62.2"/>
					<path class="st25" d="M37.1,62.8l2,15.9c-1.1,0.2-2.1,0.5-3.1,0.8l-2.1-15.8C34.8,63.3,35.9,63,37.1,62.8"/>
					<path class="st24" d="M33.8,63.6l2.1,15.8c-1,0.3-2,0.6-3,0.9l-2.3-15.8C31.7,64.2,32.7,63.9,33.8,63.6"/>
					<path class="st23" d="M30.6,64.5l2.3,15.8c-0.9,0.3-1.8,0.6-2.6,0.9l-2.4-15.7C28.8,65.1,29.7,64.8,30.6,64.5"/>
					<path class="st22" d="M27.9,65.4l2.4,15.7c-0.8,0.3-1.5,0.6-2.2,0.8l-2.5-15.7C26.3,66,27.1,65.7,27.9,65.4"/>
					<path class="st21" d="M25.6,66.3L28.1,82c-0.7,0.3-1.3,0.5-1.9,0.8l-2.6-15.7C24.2,66.9,24.9,66.6,25.6,66.3"/>
					<path class="st19" d="M23.6,67.2l2.6,15.7c-0.6,0.3-1.1,0.5-1.6,0.8L22,68C22.5,67.8,23,67.5,23.6,67.2"/>
					<path class="st18" d="M22,68l2.7,15.6c-0.5,0.3-0.9,0.5-1.4,0.8l-2.8-15.6C21,68.6,21.4,68.3,22,68"/>
					<path class="st17" d="M20.5,68.9l2.8,15.6c-0.4,0.3-0.8,0.5-1.2,0.8l-2.9-15.5C19.7,69.4,20.1,69.2,20.5,68.9"/>
					<path class="st16" d="M19.3,69.7l2.9,15.5c-0.4,0.3-0.7,0.5-1,0.8l-2.9-15.5C18.6,70.3,18.9,70,19.3,69.7"/>
					<path class="st15" d="M18.3,70.5L21.2,86c-0.3,0.3-0.6,0.5-0.8,0.8l-3-15.4C17.6,71.1,17.9,70.8,18.3,70.5"/>
					<path class="st14" d="M17.4,71.4l3,15.4c-0.3,0.3-0.5,0.5-0.7,0.8l-3-15.4C16.9,71.9,17.1,71.7,17.4,71.4"/>
					<path class="st13" d="M16.6,72.2l3,15.4c-0.2,0.3-0.4,0.5-0.5,0.8l-3-15.4C16.2,72.8,16.4,72.5,16.6,72.2"/>
					<path class="st12" d="M16.1,73.1l3,15.4c-0.2,0.3-0.3,0.6-0.4,0.8l-3-15.3C15.8,73.7,15.9,73.4,16.1,73.1"/>
					<path class="st11" d="M15.7,73.9l3,15.3c-0.1,0.3-0.2,0.6-0.2,0.9l-3.1-15.3C15.5,74.5,15.5,74.2,15.7,73.9"/>
					<path class="st10" d="M15.4,74.9l3.1,15.3c-0.1,0.3-0.1,0.6-0.1,0.9l-3.1-15.2C15.3,75.5,15.3,75.2,15.4,74.9"/>
					<path class="st9" d="M15.3,75.8L18.4,91c0,0.3,0,0.6,0.1,0.8l-3.1-15.2C15.3,76.4,15.3,76.1,15.3,75.8"/>
				</g>
			</g>
			<g class="st1">
				<defs>
					<path id="SVGID_25_" class="st1" d="M15.4,76.7c0.4,2.2,2.4,4.4,6.2,6.5L24.3,98c-3.5-2-5.4-4.1-5.8-6.2
						C17.4,86.8,16.4,81.7,15.4,76.7z"/>
				</defs>
				<clipPath id="SVGID_26_">
					<use xlink:href="#SVGID_25_"  style="overflow:visible;"/>
				</clipPath>
				<g class="st53">
					<path class="st3" d="M15.4,76.7l3.1,15.2c0.4,2.1,2.3,4.2,5.8,6.2l-2.7-14.8C17.9,81.1,15.8,78.9,15.4,76.7"/>
				</g>
			</g>
			<g class="st1">
				<defs>
					<path id="SVGID_27_" class="st1" d="M7.3,79.1c0.3-0.3,0.8-0.6,1.2-0.9c0.2-0.1,0.4-0.3,0.6-0.5c0.3-0.3,0.8-0.6,1.2-0.9
						s0.8-0.6,1.2-0.9c0.2-0.1,0.4-0.3,0.6-0.5c0.3-0.3,0.8-0.6,1.2-0.9c0.3-0.3,0.8-0.6,1.2-0.9c0.2-0.1,0.4-0.3,0.6-0.5
						c0.3-0.3,0.8-0.6,1.2-0.9s0.8-0.6,1.2-0.9c0.2-0.1,0.4-0.3,0.6-0.5c0.3-0.3,0.8-0.6,1.2-0.9c-5.3,4.1-4.8,8.9,2.7,13.1
						l-11,11.6C1.6,89.7,1,84.1,7.3,79.1z"/>
				</defs>
				<clipPath id="SVGID_28_">
					<use xlink:href="#SVGID_27_"  style="overflow:visible;"/>
				</clipPath>
				<g class="st54">
					<path class="st3" d="M7.3,79.1l11.5-9c-2.8,2.2-4,4.5-3.3,6.9L3.3,87.3C2.6,84.5,4,81.7,7.3,79.1"/>
					<path class="st5" d="M3.3,87.3l12.2-10.4c0.2,0.9,0.7,1.8,1.5,2.7L5.1,90.6C4.2,89.5,3.6,88.4,3.3,87.3"/>
					<path class="st6" d="M5.1,90.6L17,79.6c0.6,0.7,1.3,1.3,2.1,1.9L7.6,92.9C6.6,92.1,5.8,91.3,5.1,90.6"/>
					<path class="st7" d="M7.6,92.9l11.5-11.3c0.7,0.5,1.5,1.1,2.4,1.6l-11,11.6C9.4,94.2,8.5,93.5,7.6,92.9"/>
					<path class="st8" d="M10.5,94.8l11-11.6c0,0,0.1,0,0.1,0L10.5,94.8C10.6,94.8,10.5,94.8,10.5,94.8"/>
				</g>
			</g>
			<g class="st1">
				<defs>
					<path id="SVGID_29_" class="st1" d="M36.5,103c-10.8-2-19.8-4.7-25.9-8.2L24.3,98c4.8,2.7,12,4.9,20.5,6.5
						C42.1,104,39.3,103.5,36.5,103z"/>
				</defs>
				<clipPath id="SVGID_30_">
					<use xlink:href="#SVGID_29_"  style="overflow:visible;"/>
				</clipPath>
				<g class="st55">
					<path class="st11" d="M24.3,98l-13.7-3.2c0.4,0.2,0.7,0.4,1.1,0.6l13.5,3.1C24.9,98.4,24.6,98.2,24.3,98"/>
					<path class="st10" d="M25.2,98.5l-13.5-3.1c1.7,0.9,3.6,1.7,5.7,2.5l12.3,2.6C28,99.9,26.5,99.2,25.2,98.5"/>
					<path class="st9" d="M29.7,100.5L17.4,98c2.4,0.9,5,1.7,7.7,2.5l10.7,2C33.6,101.9,31.6,101.2,29.7,100.5"/>
					<path class="st8" d="M35.8,102.5l-10.7-2c3.3,0.9,6.9,1.7,10.8,2.4l8.4,1.5C41.3,103.9,38.5,103.2,35.8,102.5"/>
					<path class="st7" d="M44.4,104.4l-8.4-1.5c0.2,0,0.4,0.1,0.6,0.1l8.3,1.5C44.7,104.5,44.5,104.5,44.4,104.4"/>
				</g>
			</g>
			<g class="st1">
				<defs>
					<path id="SVGID_31_" class="st1" d="M134.3,92c-1.2,5.6-12.9,10.9-32.4,13.5c-28.8,3.9-63.5,0.5-77.6-7.5l-2.7-14.8
						c14.9,8.4,51.5,12,81.7,7.9c20.5-2.8,32.9-8.3,34.1-14.2C136.4,81.9,135.3,87,134.3,92z"/>
				</defs>
				<clipPath id="SVGID_32_">
					<use xlink:href="#SVGID_31_"  style="overflow:visible;"/>
				</clipPath>
				<g class="st56">
					<path class="st3" d="M21.6,83.2L24.3,98c3.7,2.1,8.9,3.9,15,5.3l-1.9-14.6C30.9,87.3,25.5,85.4,21.6,83.2"/>
					<path class="st5" d="M37.3,88.8l1.9,14.6c1.7,0.4,3.4,0.8,5.3,1.1L42.9,90C40.9,89.6,39.1,89.2,37.3,88.8"/>
					<path class="st6" d="M42.9,90l1.7,14.5c1.5,0.3,3,0.5,4.6,0.8l-1.4-14.5C46.1,90.5,44.4,90.2,42.9,90"/>
					<path class="st7" d="M47.7,90.8l1.4,14.5c1.4,0.2,2.8,0.4,4.3,0.6l-1.2-14.4C50.7,91.2,49.2,91,47.7,90.8"/>
					<path class="st8" d="M52.2,91.4l1.2,14.4c1.4,0.2,2.8,0.3,4.2,0.5l-1-14.4C55.1,91.7,53.7,91.5,52.2,91.4"/>
					<path class="st9" d="M56.6,91.8l1,14.4c1.4,0.1,2.7,0.3,4.1,0.4L61,92.2C59.5,92.1,58.1,92,56.6,91.8"/>
					<path class="st10" d="M61,92.2l0.8,14.4c1.4,0.1,2.8,0.2,4.2,0.3l-0.5-14.4C63.9,92.4,62.4,92.3,61,92.2"/>
					<path class="st11" d="M65.4,92.5l0.5,14.4c1.4,0.1,2.9,0.1,4.3,0.2L70,92.7C68.4,92.6,66.9,92.6,65.4,92.5"/>
					<path class="st12" d="M70,92.7l0.3,14.4c1.5,0,3,0.1,4.6,0.1l-0.1-14.4C73.2,92.8,71.6,92.7,70,92.7"/>
					<path class="st13" d="M74.8,92.8l0.1,14.4c1.7,0,3.3,0,5,0L80,92.8C78.3,92.8,76.5,92.8,74.8,92.8"/>
					<path class="st14" d="M80,92.8l-0.2,14.4c1.9,0,3.9-0.1,5.8-0.2l0.5-14.4C84.1,92.7,82.1,92.7,80,92.8"/>
					<path class="st15" d="M86.2,92.6L85.6,107c2.6-0.1,5.1-0.3,7.7-0.5l0.9-14.4C91.5,92.3,88.9,92.5,86.2,92.6"/>
					<path class="st16" d="M94.2,92.1l-0.9,14.4c2.9-0.2,5.8-0.6,8.6-0.9c4-0.5,7.6-1.2,11-1.9l2-14.5c-3.5,0.8-7.3,1.5-11.5,2
						C100.3,91.5,97.3,91.8,94.2,92.1"/>
					<path class="st15" d="M114.8,89.1l-2,14.5c2.1-0.5,4.1-1,6-1.5l2.3-14.6C119.2,88,117.1,88.6,114.8,89.1"/>
					<path class="st14" d="M121.1,87.5l-2.3,14.6c1.4-0.4,2.6-0.8,3.8-1.3l2.5-14.7C123.9,86.6,122.6,87,121.1,87.5"/>
					<path class="st13" d="M125.2,86.1l-2.5,14.7c1-0.4,2-0.8,2.9-1.2l2.6-14.8C127.2,85.3,126.2,85.8,125.2,86.1"/>
					<path class="st12" d="M128.2,84.9l-2.6,14.8c0.8-0.4,1.6-0.7,2.3-1.1l2.8-14.8C129.8,84.2,129,84.5,128.2,84.9"/>
					<path class="st11" d="M130.6,83.8l-2.8,14.8c0.7-0.4,1.3-0.7,1.9-1.1l2.9-14.9C132,83,131.3,83.4,130.6,83.8"/>
					<path class="st10" d="M132.6,82.6l-2.9,14.9c0.6-0.4,1.1-0.7,1.5-1.1l2.9-14.9C133.7,81.8,133.2,82.2,132.6,82.6"/>
					<path class="st9" d="M134.2,81.4l-2.9,14.9c0.5-0.4,0.9-0.8,1.2-1.1l3-15C135.1,80.6,134.7,81,134.2,81.4"/>
					<path class="st8" d="M135.5,80.2l-3,15c0.4-0.4,0.7-0.8,1-1.2l3.1-15.1C136.3,79.4,135.9,79.8,135.5,80.2"/>
					<path class="st7" d="M136.5,78.9L133.5,94c0.3-0.4,0.5-0.9,0.7-1.3l3.1-15.1C137.1,78,136.8,78.5,136.5,78.9"/>
					<path class="st6" d="M137.2,77.6l-3.1,15.1c0.1-0.2,0.1-0.4,0.2-0.7l3.1-15.2C137.4,77.1,137.3,77.3,137.2,77.6"/>
				</g>
			</g>
			<g class="st1">
				<defs>
					<path id="SVGID_33_" class="st1" d="M44.8,104.5c-2.8-0.5-5.5-1-8.3-1.5c20.9,3.8,48.2,4.5,72.1,1.3c2.6-0.4,5.2-0.7,7.6-1.2
						c0,0,0,0,0,0c-2.8,0.5-5.5,1-8.3,1.5c-1.9,0.3-3.9,0.7-6,0.9C82.9,108.1,61.4,107.5,44.8,104.5z"/>
				</defs>
				<clipPath id="SVGID_34_">
					<use xlink:href="#SVGID_33_"  style="overflow:visible;"/>
				</clipPath>
				<g class="st57">
					<path class="st3" d="M44.8,104.5l-8.3-1.5c20.9,3.8,48.2,4.5,72.1,1.3c2.6-0.4,5.2-0.7,7.6-1.2l-8.3,1.5
						c-1.9,0.3-3.9,0.7-6,0.9C82.9,108.1,61.4,107.5,44.8,104.5"/>
				</g>
			</g>
			<g class="st1">
				<defs>
					<path id="SVGID_35_" class="st1" d="M134.1,70.3c3.8,3,7.6,6,11.5,9.1c12.2,9.6-3.2,20.4-36.9,24.9c-36.3,4.9-80.2,0.6-98-9.5
						l11-11.6c14.9,8.4,51.5,12,81.7,7.9C131.4,87.3,144.2,78.3,134.1,70.3z"/>
				</defs>
				<clipPath id="SVGID_36_">
					<use xlink:href="#SVGID_35_"  style="overflow:visible;"/>
				</clipPath>
				<g class="st58">
					<path class="st8" d="M10.6,94.8l11-11.6c0.8,0.4,1.6,0.9,2.5,1.3L13.6,96.4C12.5,95.9,11.5,95.4,10.6,94.8"/>
					<path class="st9" d="M13.6,96.4L24,84.5c0.8,0.4,1.7,0.8,2.6,1.1l-9.9,12.1C15.6,97.3,14.6,96.8,13.6,96.4"/>
					<path class="st10" d="M16.7,97.7l9.9-12.1c0.9,0.3,1.8,0.7,2.7,1L20,98.9C18.9,98.5,17.8,98.1,16.7,97.7"/>
					<path class="st11" d="M20,98.9l9.4-12.3c0.9,0.3,1.8,0.6,2.8,0.9l-8.8,12.5C22.2,99.6,21.1,99.3,20,98.9"/>
					<path class="st12" d="M23.3,99.9l8.8-12.5c0.9,0.3,1.9,0.5,2.9,0.8l-8.3,12.6C25.6,100.6,24.4,100.3,23.3,99.9"/>
					<path class="st13" d="M26.7,100.9L35,88.2c1,0.2,1.9,0.5,2.9,0.7l-7.7,12.8C29.1,101.5,27.9,101.2,26.7,100.9"/>
					<path class="st14" d="M30.3,101.7l7.7-12.8c1,0.2,2,0.4,3,0.6l-7.1,12.9C32.7,102.3,31.4,102,30.3,101.7"/>
					<path class="st15" d="M33.9,102.5L41,89.6c1,0.2,2.1,0.4,3.1,0.6l-6.5,13C36.4,103,35.1,102.7,33.9,102.5"/>
					<path class="st16" d="M37.6,103.2l6.5-13c1,0.2,2.1,0.4,3.2,0.5l-5.8,13.1C40.2,103.6,38.9,103.4,37.6,103.2"/>
					<path class="st17" d="M41.5,103.8l5.8-13.1c1.1,0.2,2.2,0.3,3.3,0.5l-5.2,13.2C44.1,104.2,42.7,104,41.5,103.8"/>
					<path class="st18" d="M45.4,104.4l5.2-13.2c1.1,0.1,2.2,0.3,3.3,0.4l-4.5,13.3C48,104.7,46.7,104.6,45.4,104.4"/>
					<path class="st19" d="M49.4,104.9l4.5-13.3c1.1,0.1,2.2,0.2,3.4,0.3l-3.8,13.4C52.1,105.2,50.7,105,49.4,104.9"/>
					<path class="st21" d="M53.4,105.3l3.8-13.4c1.1,0.1,2.2,0.2,3.4,0.3l-3.2,13.4C56.1,105.5,54.8,105.4,53.4,105.3"/>
					<path class="st22" d="M57.5,105.6l3.2-13.4c1.1,0.1,2.2,0.2,3.3,0.2l-2.5,13.5C60.1,105.8,58.8,105.7,57.5,105.6"/>
					<path class="st23" d="M61.4,105.9l2.5-13.5c1.1,0.1,2.2,0.1,3.3,0.2l-1.9,13.5C64,106,62.7,106,61.4,105.9"/>
					<path class="st24" d="M65.4,106.1l1.9-13.5c1.1,0,2.2,0.1,3.2,0.1l-1.2,13.5C67.9,106.2,66.6,106.2,65.4,106.1"/>
					<path class="st25" d="M69.2,106.2l1.2-13.5c1.1,0,2.2,0.1,3.2,0.1l-0.6,13.5C71.8,106.3,70.5,106.3,69.2,106.2"/>
					<path class="st26" d="M73.1,106.3l0.6-13.5c1.1,0,2.2,0,3.4,0l0.1,13.6C75.8,106.4,74.5,106.3,73.1,106.3"/>
					<path class="st27" d="M77.2,106.3l-0.1-13.6c1.2,0,2.4,0,3.6,0l0.8,13.5C80,106.3,78.6,106.3,77.2,106.3"/>
					<path class="st28" d="M81.5,106.3l-0.8-13.5c1.4,0,2.8-0.1,4.1-0.1l1.6,13.5C84.8,106.2,83.1,106.3,81.5,106.3"/>
					<path class="st29" d="M86.4,106.2l-1.6-13.5c2.4-0.1,4.7-0.2,7.1-0.4l3.1,13.4C92.1,105.9,89.2,106.1,86.4,106.2"/>
					<path class="st30" d="M94.9,105.7l-3.1-13.4c3.1-0.2,6.2-0.5,9.3-0.9l4.9,13.3C102.4,105.1,98.6,105.5,94.9,105.7"/>
					<path class="st29" d="M106,104.7l-4.9-13.3c0.7-0.1,1.5-0.2,2.2-0.3c2.3-0.3,4.5-0.7,6.6-1l6.7,13c-2.5,0.5-5.1,0.9-7.9,1.2
						C107.8,104.4,106.9,104.6,106,104.7"/>
					<path class="st28" d="M116.5,103.1l-6.7-13c2.2-0.4,4.3-0.8,6.2-1.3l7.9,12.8C121.7,102.1,119.2,102.6,116.5,103.1"/>
					<path class="st27" d="M124,101.6l-7.9-12.8c1.8-0.4,3.5-0.9,5-1.3L130,100C128.1,100.5,126.1,101.1,124,101.6"/>
					<path class="st26" d="M130,100l-8.9-12.5c1.4-0.4,2.7-0.8,3.9-1.3l9.7,12.2C133.3,98.9,131.7,99.5,130,100"/>
					<path class="st25" d="M134.8,98.4l-9.7-12.2c1.1-0.4,2.1-0.8,3-1.2l10.3,12C137.3,97.4,136.1,97.9,134.8,98.4"/>
					<path class="st24" d="M138.4,96.9l-10.3-12c0.9-0.4,1.6-0.8,2.4-1.2l10.8,11.8C140.4,96,139.4,96.5,138.4,96.9"/>
					<path class="st23" d="M141.3,95.6l-10.8-11.8c0.7-0.4,1.3-0.7,1.9-1.1l11.1,11.5C142.9,94.7,142.1,95.1,141.3,95.6"/>
					<path class="st22" d="M143.6,94.2l-11.1-11.5c0.6-0.4,1.1-0.7,1.5-1.1l11.5,11.3C144.9,93.4,144.2,93.8,143.6,94.2"/>
					<path class="st21" d="M145.4,92.9L134,81.6c0.4-0.3,0.9-0.7,1.2-1.1l11.7,11.1C146.4,92.1,145.9,92.5,145.4,92.9"/>
					<path class="st19" d="M146.9,91.7l-11.7-11.1c0.4-0.3,0.7-0.7,0.9-1L148,90.4C147.7,90.8,147.3,91.3,146.9,91.7"/>
					<path class="st18" d="M148,90.4l-11.9-10.9c0.3-0.3,0.5-0.7,0.7-1l12,10.7C148.6,89.6,148.3,90,148,90.4"/>
					<path class="st17" d="M148.8,89.2l-12-10.7c0.2-0.3,0.3-0.7,0.5-1l12.1,10.5C149.2,88.4,149.1,88.8,148.8,89.2"/>
					<path class="st16" d="M149.4,87.9l-12.1-10.5c0.1-0.3,0.2-0.7,0.2-1l12.2,10.3C149.6,87.1,149.5,87.5,149.4,87.9"/>
					<path class="st15" d="M149.6,86.7l-12.2-10.3c0-0.3,0-0.7,0-1l12.2,10.1C149.7,85.9,149.7,86.3,149.6,86.7"/>
					<path class="st14" d="M149.6,85.5l-12.2-10.1c0-0.4-0.1-0.7-0.2-1.1l12.1,9.9C149.5,84.6,149.6,85,149.6,85.5"/>
					<path class="st13" d="M149.3,84.2l-12.1-9.9c-0.1-0.4-0.3-0.7-0.5-1.1l12,9.7C149,83.3,149.2,83.8,149.3,84.2"/>
					<path class="st12" d="M148.8,82.9l-12-9.7c-0.2-0.4-0.5-0.7-0.8-1.1l11.9,9.4C148.2,82,148.5,82.5,148.8,82.9"/>
					<path class="st11" d="M147.8,81.6L136,72.2c-0.3-0.4-0.7-0.8-1.1-1.1l11.6,9.2C147,80.7,147.5,81.2,147.8,81.6"/>
					<path class="st10" d="M146.6,80.3L134.9,71c-0.3-0.2-0.6-0.5-0.9-0.7l11.5,9.1C145.9,79.7,146.2,80,146.6,80.3"/>
				</g>
			</g>
		</g>
	</g>
</g>
<g>
	<g>
		<g class="st1">
			<g>
				<polygon class="st44" points="72.5,19.9 71,10.7 94.9,69.3 91.6,66.9 				"/>
			</g>
			<g>
				<polygon class="st45" points="91.6,66.9 94.9,69.3 34.8,71.3 43.4,68.4 				"/>
			</g>
			<g>
				<polygon class="st59" points="43.4,68.4 34.8,71.3 71,10.7 72.5,19.9 				"/>
			</g>
			<g>
				<polygon class="st43" points="75.6,13.2 99.5,71.8 91.6,66.9 72.5,19.9 				"/>
			</g>
			<g>
				<polygon class="st42" points="99.5,71.8 39.3,73.8 43.4,68.4 91.6,66.9 				"/>
			</g>
			<g>
				<polygon class="st60" points="39.3,73.8 75.6,13.2 72.5,19.9 43.4,68.4 				"/>
			</g>
			<g>
				<polygon class="st44" points="77.1,22.4 75.6,13.2 99.5,71.8 96.2,69.3 				"/>
			</g>
			<g>
				<polygon class="st45" points="96.2,69.3 99.5,71.8 39.3,73.8 48,70.9 				"/>
			</g>
			<g>
				<polygon class="st59" points="48,70.9 39.3,73.8 75.6,13.2 77.1,22.4 				"/>
			</g>
			<g>
				<polygon class="st43" points="80.2,15.7 104.1,74.3 96.2,69.3 77.1,22.4 				"/>
			</g>
			<g>
				<polygon class="st42" points="104.1,74.3 43.9,76.3 48,70.9 96.2,69.3 				"/>
			</g>
			<g>
				<polygon class="st60" points="43.9,76.3 80.2,15.7 77.1,22.4 48,70.9 				"/>
			</g>
			<g>
				<polygon class="st47" points="81.7,24.9 80.2,15.7 104.1,74.3 100.8,71.9 				"/>
			</g>
			<g>
				<polygon class="st45" points="100.8,71.9 104.1,74.3 43.9,76.3 52.5,73.5 				"/>
			</g>
			<g>
				<polygon class="st59" points="52.5,73.5 43.9,76.3 80.2,15.7 81.7,24.9 				"/>
			</g>
			<g>
				<polygon class="st43" points="84.8,18.2 108.7,76.8 100.8,71.9 81.7,24.9 				"/>
			</g>
			<g>
				<polygon class="st60" points="48.5,78.8 84.8,18.2 81.7,24.9 52.5,73.5 				"/>
			</g>
			<g>
				<polygon class="st42" points="108.7,76.8 48.5,78.8 52.5,73.5 100.8,71.9 				"/>
			</g>
			<g>
				<polygon class="st44" points="86.2,27.4 84.8,18.2 108.7,76.8 105.4,74.3 				"/>
			</g>
			<g>
				<polygon class="st45" points="105.4,74.3 108.7,76.8 48.5,78.8 57.2,75.9 				"/>
			</g>
			<g>
				<polygon class="st59" points="57.2,75.9 48.5,78.8 84.8,18.2 86.2,27.4 				"/>
			</g>
			<g>
				<polygon class="st43" points="89.4,20.8 113.2,79.2 105.4,74.3 86.2,27.4 				"/>
			</g>
			<g>
				<polygon class="st61" points="113.2,79.2 53.2,81.2 57.2,75.9 105.4,74.3 				"/>
			</g>
			<g>
				<polygon class="st62" points="53.2,81.2 89.4,20.8 86.2,27.4 57.2,75.9 				"/>
			</g>
			<g>
				<polygon class="st41" points="90.7,29.9 89.4,20.8 113.2,79.2 109.9,76.8 				"/>
			</g>
			<g>
				<polygon class="st63" points="109.9,76.8 113.2,79.2 53.2,81.2 61.7,78.4 				"/>
			</g>
			<g>
				<polygon class="st64" points="61.7,78.4 53.2,81.2 89.4,20.8 90.7,29.9 				"/>
			</g>
			<g>
				<polygon class="st43" points="93.8,23.1 117.7,81.7 109.9,76.8 90.7,29.9 				"/>
			</g>
			<g>
				<polygon class="st42" points="117.7,81.7 57.6,83.7 61.7,78.4 109.9,76.8 				"/>
			</g>
			<g>
				<polygon class="st60" points="57.6,83.7 93.8,23.1 90.7,29.9 61.7,78.4 				"/>
			</g>
		</g>
	</g>
</g>
<g>
	<g>
		<g class="st1">
			<g class="st1">
				<defs>
					<path id="SVGID_37_" class="st1" d="M112.3,14.8c-0.5-0.4-1.1-0.8-1.8-1.2c-8.8-5-30.6-7.1-48.6-4.7c-9,1.2-15.4,3.3-18.4,5.8
						c0.3-0.3,0.8-0.6,1.1-0.9c0.2-0.1,0.4-0.3,0.6-0.5c0.3-0.3,0.8-0.6,1.1-0.9c0.3-0.3,0.8-0.6,1.1-0.9c0.2-0.1,0.4-0.3,0.6-0.5
						c0.3-0.3,0.8-0.6,1.1-0.9c0.3-0.3,0.8-0.6,1.1-0.9c0.2-0.1,0.4-0.3,0.6-0.5C51.2,8.3,51.7,8,52,7.7c0.3-0.3,0.8-0.6,1.1-0.9
						c0.2-0.1,0.4-0.3,0.6-0.5c0.3-0.3,0.8-0.6,1.1-0.9c2-1.6,6.3-3.1,12.3-3.9c12.1-1.6,26.7-0.2,32.6,3.2c0.5,0.3,0.9,0.5,1.2,0.8
						C104.8,8.6,108.6,11.7,112.3,14.8z"/>
				</defs>
				<clipPath id="SVGID_38_">
					<use xlink:href="#SVGID_37_"  style="overflow:visible;"/>
				</clipPath>
				<g class="st65">
					<path class="st3" d="M112.3,14.8L101,5.5c-0.3-0.3-0.7-0.5-1.2-0.8c-5.9-3.4-20.5-4.8-32.6-3.2c-6.1,0.8-10.3,2.2-12.3,3.9
						l-11.4,9.3c3-2.4,9.4-4.6,18.4-5.8c18-2.4,39.8-0.3,48.6,4.7C111.2,14,111.8,14.4,112.3,14.8"/>
				</g>
			</g>
			<g class="st1">
				<defs>
					<path id="SVGID_39_" class="st1" d="M87.5,27.9c10.1-1.4,14.3-4.9,9.2-7.7c-5.1-2.9-17.7-4.1-28.1-2.7s-14.7,4.9-9.6,7.8
						l-13.8-2.9c-8.8-5-1.4-11.1,16.6-13.5s39.8-0.3,48.6,4.7c8.7,5,1.6,10.9-16,13.4C92.2,27.3,89.9,27.6,87.5,27.9z"/>
				</defs>
				<clipPath id="SVGID_40_">
					<use xlink:href="#SVGID_39_"  style="overflow:visible;"/>
				</clipPath>
				<g class="st66">
					<path class="st5" d="M87.5,27.9l7-1c3-0.4,5.7-0.9,8-1.5L92.1,27C90.8,27.4,89.2,27.7,87.5,27.9"/>
					<path class="st6" d="M92.1,27l10.4-1.6c4.7-1.2,8-2.7,9.9-4.3l-14.6,3.5C96.8,25.5,94.8,26.4,92.1,27"/>
					<path class="st7" d="M97.9,24.6l14.6-3.5c1-0.9,1.6-1.7,1.7-2.7L98.9,23C98.8,23.6,98.5,24.1,97.9,24.6"/>
					<path class="st8" d="M98.9,23l15.4-4.6c0.1-0.7,0-1.4-0.4-2l-15.2,5.4C98.9,22.2,98.9,22.6,98.9,23"/>
					<path class="st9" d="M98.6,21.9l15.2-5.4c-0.3-0.6-0.8-1.1-1.5-1.7l-14.5,6.2C98.2,21.2,98.4,21.5,98.6,21.9"/>
					<path class="st10" d="M97.8,20.9l14.5-6.2c-0.5-0.4-1.1-0.8-1.8-1.2c-0.2-0.1-0.3-0.2-0.5-0.3l-13.6,6.8
						c0.1,0.1,0.2,0.1,0.3,0.2C97.1,20.4,97.5,20.7,97.8,20.9"/>
					<path class="st11" d="M96.5,20.1l13.6-6.8c-0.8-0.4-1.7-0.8-2.8-1.2l-12.4,7.3C95.5,19.6,96,19.8,96.5,20.1"/>
					<path class="st12" d="M94.9,19.3l12.4-7.3c-1-0.4-2-0.7-3.2-1.1L93,18.7C93.7,18.9,94.3,19.1,94.9,19.3"/>
					<path class="st13" d="M93,18.7l11.1-7.7c-1.1-0.3-2.3-0.6-3.6-0.9L91,18.2C91.7,18.4,92.4,18.5,93,18.7"/>
					<path class="st14" d="M91,18.2l9.6-8.1c-1.3-0.3-2.6-0.5-4-0.8l-7.9,8.4C89.4,17.9,90.2,18,91,18.2"/>
					<path class="st15" d="M88.6,17.7l7.9-8.4c-1.5-0.2-3-0.5-4.6-0.6L86,17.4C86.9,17.5,87.8,17.6,88.6,17.7"/>
					<path class="st16" d="M86,17.4l5.9-8.7c-1.7-0.2-3.5-0.4-5.3-0.5l-3.7,8.9C84,17.2,85,17.3,86,17.4"/>
					<path class="st17" d="M82.9,17.1l3.7-8.9c-2.1-0.1-4.2-0.2-6.4-0.3l-1,9.1C80.5,16.9,81.7,17,82.9,17.1"/>
					<path class="st18" d="M79.3,16.9l1-9.1c-2.9-0.1-5.8,0-8.7,0.1l2.7,9C75.9,16.9,77.6,16.9,79.3,16.9"/>
					<path class="st19" d="M74.2,17l-2.7-9c-3.3,0.2-6.5,0.4-9.7,0.9c-4,0.5-7.4,1.2-10.3,2.1l11.1,7.8c1.7-0.5,3.7-0.9,6-1.2
						C70.5,17.2,72.3,17.1,74.2,17"/>
					<path class="st18" d="M62.7,18.7l-11.1-7.8c-2,0.6-3.8,1.2-5.2,1.9l13.3,6.9C60.5,19.4,61.5,19,62.7,18.7"/>
					<path class="st17" d="M59.7,19.8l-13.3-6.9c-1.1,0.5-2,1.1-2.7,1.6l14.5,6.3C58.5,20.4,59,20.1,59.7,19.8"/>
					<path class="st16" d="M58.1,20.8l-14.5-6.3c-0.6,0.5-1.1,1-1.5,1.5l15.1,5.6C57.5,21.3,57.7,21,58.1,20.8"/>
					<path class="st15" d="M57.3,21.6L42.2,16c-0.3,0.5-0.5,0.9-0.6,1.4l15.3,5C57,22.1,57.1,21.9,57.3,21.6"/>
					<path class="st14" d="M56.9,22.4l-15.3-5c-0.1,0.5-0.1,0.9,0.1,1.4L57,23.2C56.9,22.9,56.9,22.7,56.9,22.4"/>
					<path class="st13" d="M57,23.2l-15.3-4.5c0.1,0.4,0.4,0.9,0.7,1.3l15,3.9C57.2,23.7,57,23.5,57,23.2"/>
					<path class="st12" d="M57.4,24l-15-3.9c0.4,0.4,0.8,0.9,1.4,1.3l14.4,3.3C57.9,24.5,57.6,24.2,57.4,24"/>
					<path class="st11" d="M58.2,24.7l-14.4-3.3c0.4,0.3,0.9,0.6,1.4,0.9L59,25.3C58.7,25.1,58.4,24.9,58.2,24.7"/>
				</g>
			</g>
			<g class="st1">
				<defs>
					<path id="SVGID_41_" class="st1" d="M102.2,8c-1.1,5-2.3,10.1-3.4,15.1c0.2-1-0.4-2-2.1-2.9c-5.1-2.9-17.7-4.1-28.1-2.7
						c-7.8,1.1-12.2,3.3-11.7,5.6L53.6,7.9C53,5.3,58.1,2.7,67.2,1.5c12.1-1.6,26.7-0.2,32.6,3.2C101.7,5.7,102.5,6.9,102.2,8z"/>
				</defs>
				<clipPath id="SVGID_42_">
					<use xlink:href="#SVGID_41_"  style="overflow:visible;"/>
				</clipPath>
				<g class="st67">
					<path class="st3" d="M102.2,8l-3.4,15.1c0.2-1-0.4-2-2.1-2.9c-0.4-0.2-0.9-0.5-1.5-0.7l2.8-15.7c0.6,0.3,1.2,0.5,1.7,0.8
						C101.7,5.7,102.5,6.9,102.2,8"/>
					<path class="st5" d="M98.1,3.8l-2.8,15.7c-0.4-0.2-0.9-0.3-1.3-0.5l2.6-15.8C97.1,3.4,97.6,3.6,98.1,3.8"/>
					<path class="st6" d="M96.5,3.2L94,19c-0.4-0.1-0.7-0.2-1.1-0.3l2.4-15.8C95.7,3,96.1,3.1,96.5,3.2"/>
					<path class="st7" d="M95.2,2.8l-2.4,15.8c-0.3-0.1-0.7-0.2-1.1-0.3L94,2.5C94.4,2.6,94.8,2.7,95.2,2.8"/>
					<path class="st8" d="M94,2.5l-2.2,15.9c-0.3-0.1-0.7-0.2-1-0.2l2.1-15.9C93.2,2.3,93.6,2.4,94,2.5"/>
					<path class="st9" d="M92.8,2.3l-2.1,15.9c-0.3-0.1-0.7-0.1-1-0.2L91.7,2C92.1,2.1,92.5,2.2,92.8,2.3"/>
					<path class="st10" d="M91.7,2l-1.9,15.9c-0.3-0.1-0.6-0.1-1-0.2l1.8-16C90.9,1.9,91.3,1.9,91.7,2"/>
					<path class="st11" d="M90.6,1.8l-1.8,16c-0.3-0.1-0.6-0.1-1-0.2l1.6-16C89.8,1.7,90.2,1.8,90.6,1.8"/>
					<path class="st12" d="M89.4,1.6l-1.6,16c-0.3,0-0.6-0.1-1-0.1l1.5-16C88.7,1.5,89.1,1.6,89.4,1.6"/>
					<path class="st13" d="M88.3,1.5l-1.5,16c-0.3,0-0.6-0.1-1-0.1l1.3-16C87.6,1.4,87.9,1.4,88.3,1.5"/>
					<path class="st14" d="M87.2,1.3l-1.3,16c-0.3,0-0.6-0.1-1-0.1l1.2-16C86.5,1.3,86.8,1.3,87.2,1.3"/>
					<path class="st15" d="M86.1,1.2l-1.2,16c-0.3,0-0.6-0.1-0.9-0.1l1-16.1C85.4,1.1,85.7,1.2,86.1,1.2"/>
					<path class="st16" d="M85,1.1l-1,16.1c-0.3,0-0.6,0-0.9-0.1L84,1C84.3,1.1,84.7,1.1,85,1.1"/>
					<path class="st17" d="M84,1l-0.9,16.1c-0.3,0-0.5,0-0.8-0.1L83.1,1C83.4,1,83.7,1,84,1"/>
					<path class="st18" d="M83.1,1L82.3,17c-0.3,0-0.5,0-0.8,0l0.6-16.1C82.5,0.9,82.8,1,83.1,1"/>
					<path class="st19" d="M82.2,0.9L81.5,17c-0.2,0-0.4,0-0.7,0l0.5-16.1C81.7,0.9,81.9,0.9,82.2,0.9"/>
					<path class="st21" d="M81.4,0.9L80.9,17c-0.2,0-0.4,0-0.7,0l0.4-16.1C80.9,0.9,81.1,0.9,81.4,0.9"/>
					<path class="st22" d="M80.6,0.9l-0.4,16.1c-0.2,0-0.4,0-0.6,0L80,0.8C80.2,0.8,80.4,0.8,80.6,0.9"/>
					<path class="st23" d="M80,0.8l-0.3,16.1c-0.2,0-0.4,0-0.5,0l0.2-16.1C79.6,0.8,79.8,0.8,80,0.8"/>
					<path class="st24" d="M79.3,0.8l-0.2,16.1c-0.2,0-0.4,0-0.5,0l0.1-16.1C78.9,0.8,79.1,0.8,79.3,0.8"/>
					<path class="st25" d="M78.7,0.8l-0.1,16.1c-0.2,0-0.3,0-0.5,0l0.1-16.1C78.3,0.8,78.5,0.8,78.7,0.8"/>
					<path class="st26" d="M78.1,0.8l-0.1,16.1c-0.2,0-0.3,0-0.5,0l0-16.1C77.8,0.8,78,0.8,78.1,0.8"/>
					<path class="st27" d="M77.6,0.8l0,16.1c-0.2,0-0.3,0-0.5,0L77.1,0.8C77.2,0.8,77.4,0.8,77.6,0.8"/>
					<path class="st28" d="M77.1,0.8l0.1,16.1c-0.2,0-0.3,0-0.5,0L76.5,0.8C76.7,0.8,76.9,0.8,77.1,0.8"/>
					<path class="st29" d="M76.5,0.8l0.2,16.1c-0.2,0-0.3,0-0.5,0L75.9,0.8C76.1,0.8,76.3,0.8,76.5,0.8"/>
					<path class="st30" d="M75.9,0.8l0.2,16.1c-0.2,0-0.3,0-0.5,0L75.4,0.8C75.6,0.8,75.7,0.8,75.9,0.8"/>
					<path class="st31" d="M75.4,0.8l0.3,16.1c-0.2,0-0.3,0-0.5,0L74.8,0.9C75,0.9,75.2,0.8,75.4,0.8"/>
					<path class="st32" d="M74.8,0.9l0.4,16.1c-0.2,0-0.4,0-0.6,0L74,0.9C74.3,0.9,74.5,0.9,74.8,0.9"/>
					<path class="st33" d="M74,0.9L74.5,17c-0.2,0-0.5,0-0.7,0L73.2,0.9C73.5,0.9,73.8,0.9,74,0.9"/>
					<path class="st68" d="M73.2,0.9L73.8,17c-0.5,0-0.9,0.1-1.4,0.1L71.7,1C72.2,1,72.7,1,73.2,0.9"/>
					<path class="st69" d="M71.7,1l0.8,16.1c-0.4,0-0.8,0.1-1.1,0.1l-1-16.1C70.8,1.1,71.2,1.1,71.7,1"/>
					<path class="st68" d="M70.3,1.1l1,16.1c-0.5,0-0.9,0.1-1.3,0.1l-1.2-16C69.3,1.2,69.8,1.2,70.3,1.1"/>
					<path class="st33" d="M68.8,1.3l1.2,16c-0.3,0-0.5,0.1-0.8,0.1l-1.4-16C68.2,1.4,68.5,1.3,68.8,1.3"/>
					<path class="st32" d="M67.9,1.4l1.4,16c-0.2,0-0.4,0.1-0.6,0.1c0,0-0.1,0-0.1,0L67,1.5c0.1,0,0.1,0,0.2,0
						C67.4,1.5,67.7,1.4,67.9,1.4"/>
					<path class="st31" d="M67,1.5l1.5,16c-0.2,0-0.4,0.1-0.7,0.1l-1.6-16C66.5,1.6,66.8,1.5,67,1.5"/>
					<path class="st30" d="M66.3,1.6l1.6,16c-0.2,0-0.4,0.1-0.6,0.1l-1.7-16C65.8,1.7,66,1.6,66.3,1.6"/>
					<path class="st29" d="M65.5,1.7l1.7,16c-0.2,0-0.5,0.1-0.7,0.1l-1.8-16C65,1.8,65.3,1.8,65.5,1.7"/>
					<path class="st28" d="M64.7,1.9l1.8,16c-0.2,0-0.5,0.1-0.7,0.1L63.9,2C64.1,2,64.4,1.9,64.7,1.9"/>
					<path class="st27" d="M63.9,2L65.8,18c-0.3,0.1-0.6,0.1-0.9,0.2l-2-15.9C63.2,2.2,63.5,2.1,63.9,2"/>
					<path class="st26" d="M62.9,2.2l2,15.9c-0.3,0.1-0.6,0.1-1,0.2L61.7,2.5C62.1,2.4,62.5,2.3,62.9,2.2"/>
					<path class="st25" d="M61.7,2.5l2.2,15.9c-0.4,0.1-0.7,0.2-1.1,0.3L60.5,2.8C60.9,2.7,61.3,2.6,61.7,2.5"/>
					<path class="st24" d="M60.5,2.8l2.4,15.8c-0.4,0.1-0.7,0.2-1,0.3L59.3,3.2C59.7,3,60.1,2.9,60.5,2.8"/>
					<path class="st23" d="M59.3,3.2l2.5,15.8c-0.3,0.1-0.6,0.2-0.9,0.3L58.3,3.5C58.6,3.4,59,3.3,59.3,3.2"/>
					<path class="st22" d="M58.3,3.5L61,19.3c-0.3,0.1-0.5,0.2-0.7,0.3L57.4,3.9C57.7,3.8,58,3.7,58.3,3.5"/>
					<path class="st21" d="M57.4,3.9l2.8,15.7c-0.2,0.1-0.4,0.2-0.6,0.3L56.7,4.2C56.9,4.1,57.2,4,57.4,3.9"/>
					<path class="st19" d="M56.7,4.2l2.9,15.6c-0.2,0.1-0.4,0.2-0.5,0.3L56,4.6C56.2,4.4,56.5,4.3,56.7,4.2"/>
					<path class="st18" d="M56,4.6l3,15.6c-0.2,0.1-0.3,0.2-0.5,0.3L55.5,4.9C55.7,4.8,55.8,4.7,56,4.6"/>
					<path class="st17" d="M55.5,4.9l3.1,15.5c-0.1,0.1-0.3,0.2-0.4,0.3L55,5.2C55.2,5.1,55.3,5,55.5,4.9"/>
					<path class="st16" d="M55,5.2l3.1,15.5c-0.1,0.1-0.2,0.2-0.3,0.3L54.6,5.5C54.8,5.4,54.9,5.3,55,5.2"/>
					<path class="st15" d="M54.6,5.5L57.8,21c-0.1,0.1-0.2,0.2-0.3,0.3L54.3,5.9C54.4,5.8,54.5,5.7,54.6,5.5"/>
					<path class="st14" d="M54.3,5.9l3.2,15.4c-0.1,0.1-0.2,0.2-0.2,0.3L54,6.2C54.1,6.1,54.2,6,54.3,5.9"/>
					<path class="st13" d="M54,6.2l3.3,15.4c-0.1,0.1-0.1,0.2-0.2,0.3L53.8,6.6C53.9,6.4,53.9,6.3,54,6.2"/>
					<path class="st12" d="M53.8,6.6l3.3,15.3C57.1,22,57,22.1,57,22.2L53.7,6.9C53.7,6.8,53.8,6.7,53.8,6.6"/>
					<path class="st11" d="M53.7,6.9L57,22.2c0,0.1-0.1,0.2-0.1,0.3L53.6,7.3C53.6,7.1,53.6,7,53.7,6.9"/>
					<path class="st10" d="M53.6,7.3l3.3,15.2c0,0.1,0,0.2,0,0.3L53.6,7.6C53.5,7.5,53.6,7.4,53.6,7.3"/>
					<path class="st9" d="M53.6,7.6l3.3,15.2c0,0.1,0,0.2,0,0.3L53.6,7.9C53.6,7.8,53.6,7.7,53.6,7.6"/>
				</g>
			</g>
			<g class="st1">
				<defs>
					<path id="SVGID_43_" class="st1" d="M53.6,7.9c0.2,0.9,1,1.7,2.4,2.6l3,14.8c-1.3-0.7-1.9-1.5-2.1-2.2
						C55.9,18.5,54.6,12.5,53.6,7.9z"/>
				</defs>
				<clipPath id="SVGID_44_">
					<use xlink:href="#SVGID_43_"  style="overflow:visible;"/>
				</clipPath>
				<g class="st70">
					<path class="st3" d="M53.6,7.9l3.3,15.1c0.2,0.7,0.9,1.5,2.1,2.2l-3-14.8C54.6,9.7,53.8,8.8,53.6,7.9"/>
				</g>
			</g>
			<g class="st1">
				<defs>
					<path id="SVGID_45_" class="st1" d="M43.5,14.6c0.3-0.3,0.8-0.6,1.1-0.9c0.2-0.1,0.4-0.3,0.6-0.5c0.3-0.3,0.8-0.6,1.1-0.9
						c0.3-0.3,0.8-0.6,1.1-0.9c0.2-0.1,0.4-0.3,0.6-0.5c0.3-0.3,0.8-0.6,1.1-0.9c0.3-0.3,0.8-0.6,1.1-0.9c0.2-0.1,0.4-0.3,0.6-0.5
						C51.2,8.3,51.7,8,52,7.7c0.3-0.3,0.8-0.6,1.1-0.9c0.2-0.1,0.4-0.3,0.6-0.5c0.3-0.3,0.8-0.6,1.1-0.9c-2,1.6-1.8,3.5,1.2,5.2
						L45.3,22.3C40.8,19.8,40.5,17.1,43.5,14.6z"/>
				</defs>
				<clipPath id="SVGID_46_">
					<use xlink:href="#SVGID_45_"  style="overflow:visible;"/>
				</clipPath>
				<g class="st71">
					<path class="st3" d="M43.5,14.6l11.4-9.3c-1.1,0.9-1.5,1.8-1.2,2.8l-12,10.7C41.2,17.4,41.9,16,43.5,14.6"/>
					<path class="st5" d="M41.7,18.8l12-10.7c0.1,0.3,0.3,0.7,0.6,1L42.7,20.4C42.2,19.8,41.9,19.3,41.7,18.8"/>
					<path class="st6" d="M42.7,20.4L54.3,9.2c0.2,0.3,0.5,0.5,0.9,0.8L44,21.5C43.4,21.1,43,20.7,42.7,20.4"/>
					<path class="st7" d="M44,21.5L55.2,10c0.3,0.2,0.5,0.4,0.9,0.6L45.3,22.3C44.8,22.1,44.3,21.8,44,21.5"/>
				</g>
			</g>
			<g class="st1">
				<defs>
					<path id="SVGID_47_" class="st1" d="M98.9,23.1c-0.5,2-4.7,3.9-11.7,4.9c-10.4,1.4-23,0.2-28.1-2.7l-3-14.8
						c5.9,3.4,20.5,4.8,32.6,3.2c8.1-1.1,13.1-3.3,13.6-5.6C101.1,13.1,100,18.1,98.9,23.1z"/>
				</defs>
				<clipPath id="SVGID_48_">
					<use xlink:href="#SVGID_47_"  style="overflow:visible;"/>
				</clipPath>
				<g class="st72">
					<path class="st3" d="M56,10.5l3,14.8c1.4,0.8,3.3,1.5,5.6,2l-2.1-14.4C59.9,12.2,57.7,11.4,56,10.5"/>
					<path class="st5" d="M62.6,12.8l2.1,14.4c0.6,0.1,1.3,0.3,2,0.4l-1.8-14.4C64.1,13.1,63.3,13,62.6,12.8"/>
					<path class="st6" d="M64.9,13.3l1.8,14.4c0.5,0.1,1.1,0.2,1.7,0.3l-1.5-14.3C66.2,13.5,65.5,13.4,64.9,13.3"/>
					<path class="st7" d="M66.8,13.6l1.5,14.3c0.5,0.1,1.1,0.1,1.6,0.2l-1.2-14.3C68,13.7,67.4,13.7,66.8,13.6"/>
					<path class="st8" d="M68.7,13.8l1.2,14.3c0.5,0.1,1,0.1,1.6,0.2l-1-14.3C69.9,13.9,69.3,13.9,68.7,13.8"/>
					<path class="st9" d="M70.5,14l1,14.3c0.5,0,1,0.1,1.5,0.1l-0.8-14.3C71.7,14.1,71.1,14.1,70.5,14"/>
					<path class="st10" d="M72.3,14.1L73,28.4c0.5,0,1,0.1,1.6,0.1l-0.5-14.2C73.5,14.2,72.9,14.2,72.3,14.1"/>
					<path class="st11" d="M74.1,14.3l0.5,14.2c0.5,0,1.1,0,1.6,0.1L76,14.3C75.4,14.3,74.7,14.3,74.1,14.3"/>
					<path class="st12" d="M76,14.3l0.2,14.2c0.6,0,1.2,0,1.7,0l0-14.2C77.3,14.3,76.7,14.3,76,14.3"/>
					<path class="st13" d="M78,14.3l0,14.2c0.6,0,1.3,0,1.9,0l0.4-14.2C79.5,14.3,78.8,14.3,78,14.3"/>
					<path class="st14" d="M80.3,14.3l-0.4,14.2c0.8,0,1.5-0.1,2.3-0.1l0.7-14.3C82.1,14.3,81.2,14.3,80.3,14.3"/>
					<path class="st15" d="M82.9,14.2l-0.7,14.3c1.4-0.1,2.8-0.2,4.2-0.4l1.4-14.3C86.2,14,84.6,14.1,82.9,14.2"/>
					<path class="st16" d="M87.8,13.8l-1.4,14.3c0.2,0,0.5-0.1,0.7-0.1c0.7-0.1,1.4-0.2,2-0.3l1.8-14.4c-0.7,0.1-1.5,0.2-2.3,0.4
						C88.4,13.7,88.1,13.7,87.8,13.8"/>
					<path class="st15" d="M90.9,13.3l-1.8,14.4c1.3-0.2,2.4-0.5,3.4-0.7l2.4-14.5C93.7,12.8,92.4,13.1,90.9,13.3"/>
					<path class="st14" d="M94.9,12.4l-2.4,14.5c0.6-0.2,1.1-0.3,1.6-0.5l2.6-14.6C96.2,12.1,95.6,12.3,94.9,12.4"/>
					<path class="st13" d="M96.8,11.9l-2.6,14.6c0.4-0.1,0.8-0.3,1.2-0.4l2.8-14.6C97.7,11.6,97.3,11.7,96.8,11.9"/>
					<path class="st12" d="M98.1,11.4L95.3,26c0.3-0.1,0.6-0.3,0.9-0.4l3-14.7C98.9,11.1,98.5,11.2,98.1,11.4"/>
					<path class="st11" d="M99.2,10.9l-3,14.7c0.3-0.1,0.5-0.3,0.7-0.4l3.1-14.8C99.8,10.6,99.5,10.7,99.2,10.9"/>
					<path class="st10" d="M100.1,10.4L97,25.2c0.2-0.1,0.4-0.3,0.6-0.4l3.2-14.8C100.6,10.1,100.3,10.3,100.1,10.4"/>
					<path class="st9" d="M100.8,9.9l-3.2,14.8c0.2-0.1,0.3-0.3,0.5-0.4l3.3-14.9C101.2,9.6,101,9.8,100.8,9.9"/>
					<path class="st8" d="M101.4,9.4l-3.3,14.9c0.1-0.1,0.3-0.3,0.4-0.4l3.3-15C101.7,9.1,101.5,9.3,101.4,9.4"/>
					<path class="st7" d="M101.8,8.9l-3.3,15c0.1-0.2,0.2-0.3,0.3-0.5l3.4-15.1C102,8.6,101.9,8.7,101.8,8.9"/>
					<path class="st6" d="M102.1,8.4l-3.4,15.1c0-0.1,0.1-0.2,0.1-0.3L102.2,8C102.2,8.1,102.2,8.3,102.1,8.4"/>
				</g>
			</g>
			<g class="st1">
				<defs>
					<path id="SVGID_49_" class="st1" d="M61.2,26.9c-6.7-1-12.4-2.5-15.9-4.6L59,25.3c2.1,1.2,5.3,2.1,9.2,2.6
						C65.9,27.6,63.5,27.2,61.2,26.9z"/>
				</defs>
				<clipPath id="SVGID_50_">
					<use xlink:href="#SVGID_49_"  style="overflow:visible;"/>
				</clipPath>
				<g class="st73">
					<path class="st11" d="M59,25.3l-13.8-2.9c0.2,0.1,0.5,0.3,0.8,0.4l13.5,2.8C59.3,25.4,59.2,25.4,59,25.3"/>
					<path class="st10" d="M59.5,25.5L46,22.7c0.9,0.5,1.9,0.9,3.1,1.3l12.2,2.2C60.6,26,60,25.8,59.5,25.5"/>
					<path class="st9" d="M61.2,26.3L49.1,24c1.3,0.5,2.7,0.9,4.2,1.3L63.6,27C62.8,26.8,62,26.5,61.2,26.3"/>
					<path class="st8" d="M63.6,27l-10.4-1.7c1.8,0.5,3.8,0.9,5.9,1.2l7.9,1.2C65.8,27.5,64.7,27.3,63.6,27"/>
					<path class="st7" d="M67,27.7l-7.9-1.2c0.7,0.1,1.4,0.2,2.1,0.3l7,1C67.8,27.8,67.4,27.8,67,27.7"/>
				</g>
			</g>
			<g class="st1">
				<defs>
					<path id="SVGID_51_" class="st1" d="M68.2,27.9c-2.3-0.3-4.7-0.7-7-1c9.9,1.4,22,1.6,32.7,0.2c0.2,0,0.4-0.1,0.7-0.1
						c-2.3,0.3-4.7,0.7-7,1c-0.1,0-0.3,0-0.4,0.1C80.9,28.8,73.9,28.7,68.2,27.9z"/>
				</defs>
				<clipPath id="SVGID_52_">
					<use xlink:href="#SVGID_51_"  style="overflow:visible;"/>
				</clipPath>
				<g class="st74">
					<path class="st3" d="M68.2,27.9l-7-1c9.9,1.4,22,1.6,32.7,0.2c0.2,0,0.4-0.1,0.7-0.1l-7,1c-0.1,0-0.3,0-0.4,0.1
						C80.9,28.8,73.9,28.7,68.2,27.9"/>
				</g>
			</g>
			<g class="st1">
				<defs>
					<path id="SVGID_53_" class="st1" d="M101,5.5c3.8,3.1,7.6,6.2,11.3,9.3c5.8,4.7-1.9,10-18.4,12.3c-18,2.4-39.8,0.3-48.6-4.7
						L56,10.5c5.9,3.4,20.5,4.8,32.6,3.2C99.8,12.2,104.9,8.6,101,5.5z"/>
				</defs>
				<clipPath id="SVGID_54_">
					<use xlink:href="#SVGID_53_"  style="overflow:visible;"/>
				</clipPath>
				<g class="st75">
					<path class="st7" d="M45.3,22.3L56,10.5c0,0,0.1,0,0.1,0.1L45.4,22.4C45.4,22.4,45.3,22.4,45.3,22.3"/>
					<path class="st8" d="M45.4,22.4l10.7-11.8c0.3,0.2,0.7,0.3,1,0.5L46.9,23.2C46.4,22.9,45.9,22.7,45.4,22.4"/>
					<path class="st9" d="M46.9,23.2l10.2-12.1c0.3,0.2,0.7,0.3,1,0.4l-9.7,12.3C47.9,23.6,47.4,23.4,46.9,23.2"/>
					<path class="st10" d="M48.5,23.8l9.7-12.3c0.3,0.1,0.7,0.3,1.1,0.4l-9.2,12.5C49.5,24.2,49,24,48.5,23.8"/>
					<path class="st11" d="M50.1,24.4l9.2-12.5c0.4,0.1,0.7,0.2,1.1,0.3l-8.7,12.7C51.2,24.7,50.6,24.6,50.1,24.4"/>
					<path class="st12" d="M51.7,24.9l8.7-12.7c0.4,0.1,0.7,0.2,1.1,0.3l-8.1,12.8C52.8,25.2,52.3,25.1,51.7,24.9"/>
					<path class="st13" d="M53.4,25.4l8.1-12.8c0.4,0.1,0.8,0.2,1.2,0.3l-7.5,13C54.5,25.6,54,25.5,53.4,25.4"/>
					<path class="st14" d="M55.1,25.8l7.5-13c0.4,0.1,0.8,0.2,1.2,0.3l-6.9,13.1C56.3,26,55.7,25.9,55.1,25.8"/>
					<path class="st15" d="M56.9,26.2l6.9-13.1c0.4,0.1,0.8,0.2,1.2,0.2l-6.3,13.2C58.1,26.4,57.5,26.3,56.9,26.2"/>
					<path class="st16" d="M58.7,26.5l6.3-13.2c0.4,0.1,0.8,0.1,1.3,0.2l-5.7,13.3C60,26.7,59.3,26.6,58.7,26.5"/>
					<path class="st17" d="M60.6,26.8l5.7-13.3c0.4,0.1,0.8,0.1,1.3,0.2l-5.1,13.4C61.8,27,61.2,26.9,60.6,26.8"/>
					<path class="st18" d="M62.5,27.1l5.1-13.4c0.4,0.1,0.9,0.1,1.3,0.2l-4.5,13.5C63.8,27.2,63.1,27.1,62.5,27.1"/>
					<path class="st19" d="M64.4,27.3l4.5-13.5c0.4,0,0.9,0.1,1.3,0.1l-3.8,13.5C65.7,27.4,65.1,27.4,64.4,27.3"/>
					<path class="st21" d="M66.4,27.5L70.2,14c0.4,0,0.9,0.1,1.3,0.1l-3.2,13.6C67.6,27.6,67,27.6,66.4,27.5"/>
					<path class="st22" d="M68.3,27.7l3.2-13.6c0.4,0,0.8,0.1,1.3,0.1l-2.6,13.6C69.5,27.8,68.9,27.7,68.3,27.7"/>
					<path class="st23" d="M70.2,27.8l2.6-13.6c0.4,0,0.8,0,1.2,0.1l-2,13.7C71.4,27.9,70.8,27.8,70.2,27.8"/>
					<path class="st24" d="M72,27.9l2-13.7c0.4,0,0.8,0,1.2,0L73.8,28C73.2,27.9,72.6,27.9,72,27.9"/>
					<path class="st25" d="M73.8,28l1.4-13.7c0.4,0,0.8,0,1.2,0L75.6,28C75,28,74.4,28,73.8,28"/>
					<path class="st26" d="M75.6,28l0.8-13.7c0.4,0,0.8,0,1.2,0L77.4,28C76.8,28,76.2,28,75.6,28"/>
					<path class="st27" d="M77.4,28l0.2-13.7c0.4,0,0.8,0,1.3,0L79.3,28C78.7,28,78,28,77.4,28"/>
					<path class="st28" d="M79.3,28l-0.4-13.7c0.5,0,0.9,0,1.4,0L81.4,28C80.7,28,80,28,79.3,28"/>
					<path class="st29" d="M81.4,28l-1.1-13.7c0.6,0,1.2,0,1.7-0.1l2,13.7C83.1,27.9,82.3,28,81.4,28"/>
					<path class="st30" d="M84,27.9l-2-13.7c2.3-0.1,4.5-0.3,6.6-0.6c0.4,0,0.7-0.1,1-0.1l5.8,13.3c-0.5,0.1-1,0.2-1.6,0.2
						C90.7,27.5,87.3,27.8,84,27.9"/>
					<path class="st29" d="M95.5,26.8l-5.8-13.3c0.9-0.1,1.7-0.3,2.4-0.4l7,13.1C97.9,26.4,96.7,26.6,95.5,26.8"/>
					<path class="st28" d="M99.1,26.2l-7-13.1c0.7-0.1,1.5-0.3,2.1-0.5l8,12.9C101.3,25.7,100.2,26,99.1,26.2"/>
					<path class="st27" d="M102.3,25.5l-8-12.9c0.6-0.2,1.3-0.3,1.8-0.5l8.9,12.6C104.1,25,103.2,25.2,102.3,25.5"/>
					<path class="st26" d="M105,24.7l-8.9-12.6c0.5-0.2,1-0.3,1.5-0.5l9.6,12.4C106.5,24.2,105.8,24.5,105,24.7"/>
					<path class="st25" d="M107.2,24l-9.6-12.4c0.4-0.2,0.8-0.3,1.1-0.5l10.2,12.1C108.3,23.5,107.8,23.8,107.2,24"/>
					<path class="st24" d="M108.9,23.3L98.7,11.2c0.3-0.1,0.6-0.3,0.9-0.4l10.6,11.9C109.8,22.8,109.4,23.1,108.9,23.3"/>
					<path class="st23" d="M110.2,22.6L99.6,10.7c0.3-0.1,0.5-0.3,0.7-0.4l11,11.7C111,22.2,110.6,22.4,110.2,22.6"/>
					<path class="st22" d="M111.3,22l-11-11.7c0.2-0.1,0.4-0.3,0.6-0.4l11.3,11.5C111.9,21.6,111.6,21.8,111.3,22"/>
					<path class="st21" d="M112.2,21.3L100.9,9.9c0.2-0.1,0.3-0.3,0.5-0.4l11.5,11.3C112.7,20.9,112.5,21.1,112.2,21.3"/>
					<path class="st19" d="M112.9,20.7L101.4,9.4c0.1-0.1,0.3-0.3,0.4-0.4l11.7,11.1C113.3,20.3,113.1,20.5,112.9,20.7"/>
					<path class="st18" d="M113.4,20.1L101.7,9c0.1-0.1,0.2-0.3,0.3-0.4l11.8,10.9C113.7,19.7,113.6,19.9,113.4,20.1"/>
					<path class="st17" d="M113.8,19.5L102,8.6c0.1-0.1,0.1-0.3,0.2-0.4l11.9,10.7C114,19.1,114,19.3,113.8,19.5"/>
					<path class="st16" d="M114.1,18.9L102.2,8.2c0-0.1,0.1-0.3,0.1-0.4l12,10.5C114.2,18.5,114.2,18.7,114.1,18.9"/>
					<path class="st15" d="M114.2,18.3l-12-10.5c0-0.1,0-0.3,0-0.4l12,10.3C114.3,17.9,114.3,18.1,114.2,18.3"/>
					<path class="st14" d="M114.2,17.7l-12-10.3c0-0.1,0-0.3-0.1-0.4l11.9,10.1C114.2,17.3,114.2,17.5,114.2,17.7"/>
					<path class="st13" d="M114.1,17.1L102.2,7c0-0.1-0.1-0.3-0.2-0.4l11.8,9.9C114,16.7,114,16.9,114.1,17.1"/>
					<path class="st12" d="M113.8,16.5L102,6.6c-0.1-0.1-0.2-0.3-0.3-0.4l11.7,9.7C113.6,16,113.7,16.3,113.8,16.5"/>
					<path class="st11" d="M113.4,15.8l-11.7-9.7c-0.1-0.1-0.3-0.3-0.4-0.4l11.5,9.5C113,15.4,113.2,15.6,113.4,15.8"/>
					<path class="st10" d="M112.8,15.2l-11.5-9.5c-0.1-0.1-0.2-0.2-0.3-0.3l11.3,9.3C112.5,14.9,112.7,15,112.8,15.2"/>
				</g>
			</g>
		</g>
	</g>
</g>
</svg>
