<?xml version="1.0" encoding="utf-8"?>
<!-- Generator: Adobe Illustrator 24.3.0, SVG Export Plug-In . SVG Version: 6.00 Build 0)  -->
<svg version="1.1" id="Layer_1" xmlns="http://www.w3.org/2000/svg" xmlns:xlink="http://www.w3.org/1999/xlink" x="0px" y="0px"
	 viewBox="0 0 1280 1024" style="enable-background:new 0 0 1280 1024;" xml:space="preserve">
<style type="text/css">
	.st0{fill:#3B7FD9;}
	.st1{fill:url(#SVGID_1_);stroke:#000000;stroke-miterlimit:10;}
	.st2{fill:url(#SVGID_2_);stroke:#000000;stroke-miterlimit:10;}
	.st3{fill:url(#SVGID_3_);stroke:#000000;stroke-miterlimit:10;}
	.st4{fill:url(#SVGID_4_);stroke:#000000;stroke-miterlimit:10;}
</style>
<g>
	<rect x="1.2" y="0.2" class="st0" width="1278.5" height="1023.5"/>
	<path d="M1279.5,0.5v1023H1.5V0.5H1279.5 M1280,0H1v1024h1279V0L1280,0z"/>
</g>
<g>
	<g>
		<linearGradient id="SVGID_1_" gradientUnits="userSpaceOnUse" x1="11.6277" y1="141.8963" x2="993.6472" y2="141.8963">
			<stop  offset="0" style="stop-color:#EAEAEA"/>
			<stop  offset="0.1821" style="stop-color:#EFF0F1"/>
			<stop  offset="0.5729" style="stop-color:#F7F9FC"/>
			<stop  offset="0.6556" style="stop-color:#FAFCFD"/>
			<stop  offset="0.8847" style="stop-color:#FFFFFF"/>
		</linearGradient>
		<polygon class="st1" points="-1.1,4.5 980.9,4.5 -0.6,279.3 		"/>
		<linearGradient id="SVGID_2_" gradientUnits="userSpaceOnUse" x1="-1.229" y1="141.9435" x2="983.0217" y2="141.9435">
			<stop  offset="0" style="stop-color:#FFFFFF"/>
			<stop  offset="1" style="stop-color:#000000"/>
		</linearGradient>
		<path class="st2" d="M978.9,4.8L-0.4,279L-0.8,4.8H978.9 M983,4.2H-1.2l0.5,275.4L983,4.2L983,4.2z"/>
	</g>
</g>
<g>
	<g>
		<linearGradient id="SVGID_3_" gradientUnits="userSpaceOnUse" x1="1278.4058" y1="412.8767" x2="235.6635" y2="412.8767">
			<stop  offset="2.577113e-03" style="stop-color:#FFFFFF"/>
			<stop  offset="0.5267" style="stop-color:#FFFFFF"/>
			<stop  offset="0.5292" style="stop-color:#FFFFFF"/>
			<stop  offset="0.6989" style="stop-color:#F9F9F9"/>
			<stop  offset="1" style="stop-color:#F5F5F5"/>
		</linearGradient>
		<polygon class="st3" points="235.7,412.9 1278.4,-94 1278.4,919.8 		"/>
		<linearGradient id="SVGID_4_" gradientUnits="userSpaceOnUse" x1="1278.7344" y1="412.8767" x2="235.0064" y2="412.8767">
			<stop  offset="2.577113e-03" style="stop-color:#FFFFFF"/>
			<stop  offset="0.5292" style="stop-color:#FFFFFF"/>
			<stop  offset="1" style="stop-color:#F5F5F5"/>
		</linearGradient>
		<path class="st4" d="M1278-93.6V919.2L236.3,412.9L1278-93.6 M1278.7-94.6L235,412.9l1043.7,507.5V-94.6L1278.7-94.6z"/>
	</g>
</g>
</svg>
