<?xml version="1.0" encoding="utf-8"?>
<!-- Generator: Adobe Illustrator 26.3.1, SVG Export Plug-In . SVG Version: 6.00 Build 0)  -->
<svg version="1.1" id="Layer_1" xmlns="http://www.w3.org/2000/svg" xmlns:xlink="http://www.w3.org/1999/xlink" x="0px" y="0px"
	 viewBox="0 0 1280 1024" style="enable-background:new 0 0 1280 1024;" xml:space="preserve">
<style type="text/css">
	.st0{fill:#3B7FD9;}
	.st1{fill:#E1EABE;}
</style>
<g>
	<rect x="1.2" y="0.2" class="st0" width="1278.5" height="1023.5"/>
	<path d="M1279.5,0.5v1023H1.5V0.5H1279.5 M1280,0H1v1024h1279V0L1280,0z"/>
</g>
<g>
	
		<image style="overflow:visible;opacity:0.75;" width="743" height="942" xlink:href="DEAF320C.png"  transform="matrix(1 0 0 1 559 86)">
	</image>
	<g>
		<polygon class="st1" points="567.5,543.4 1279.8,88.3 1279.8,998.5 		"/>
		<path d="M1279.5,88.7v909.3L567.9,543.4L1279.5,88.7 M1280,87.8L567,543.4L1280,999V87.8L1280,87.8z"/>
	</g>
</g>
<g>
	
		<image style="overflow:visible;opacity:0.75;" width="1310" height="268" xlink:href="DEAF320D.png"  transform="matrix(1 0 0 1 -8 -8)">
	</image>
	<g>
		<polygon class="st1" points="1,0.2 1277.3,0.2 1.6,237.7 		"/>
		<path d="M1274.6,0.5L1.9,237.4L1.3,0.5L1274.6,0.5 M1280,0L0.8,0l0.6,238L1280,0L1280,0z"/>
	</g>
</g>
</svg>
